<mxfile host="app.diagrams.net" modified="2023-09-25T21:47:08.022Z" agent="Mozilla/5.0 (Windows NT 10.0; Win64; x64) AppleWebKit/537.36 (KHTML, like Gecko) Chrome/117.0.0.0 Safari/537.36" etag="VyhK5B2-437_HR54ajxg" version="21.8.2" type="github">
  <diagram name="Page-1" id="gHKBDr5t76uutiOnwRir">
    <mxGraphModel dx="3174" dy="1142" grid="1" gridSize="10" guides="1" tooltips="1" connect="1" arrows="1" fold="1" page="1" pageScale="1" pageWidth="1100" pageHeight="1700" math="0" shadow="0">
      <root>
        <mxCell id="0" />
        <mxCell id="1" parent="0" />
        <mxCell id="TjWUEsn5IVO1DjWOrf8H-6" value="" style="rounded=1;whiteSpace=wrap;html=1;" vertex="1" parent="1">
          <mxGeometry x="40" y="220" width="750" height="590" as="geometry" />
        </mxCell>
        <object placeholders="1" c4Type="Users Web client" c4Container="Windows, macOS, Linux" c4Technology="Chrome, Firefox, Edge, Safari, Etc." c4Description="Users access resources on web browser via HTTPS " label="&lt;font style=&quot;font-size: 16px&quot;&gt;&lt;b&gt;%c4Type%&lt;/b&gt;&lt;/font&gt;&lt;div&gt;[%c4Container%:&amp;nbsp;%c4Technology%]&lt;/div&gt;&lt;br&gt;&lt;div&gt;&lt;font style=&quot;font-size: 11px&quot;&gt;&lt;font&gt;%c4Description%&lt;/font&gt;&lt;/font&gt;&lt;/div&gt;" id="TjWUEsn5IVO1DjWOrf8H-3">
          <mxCell style="shape=mxgraph.c4.webBrowserContainer2;whiteSpace=wrap;html=1;boundedLbl=1;rounded=0;labelBackgroundColor=none;strokeColor2=#0E7DAD;fontSize=12;align=center;metaEdit=1;points=[[0.5,0,0],[1,0.25,0],[1,0.5,0],[1,0.75,0],[0.5,1,0],[0,0.75,0],[0,0.5,0],[0,0.25,0]];resizable=0;fillColor=none;fontColor=default;labelBorderColor=none;spacingTop=5;spacing=27;spacingLeft=0;" vertex="1" parent="1">
            <mxGeometry x="290" y="10" width="240" height="160" as="geometry" />
          </mxCell>
        </object>
        <mxCell id="TjWUEsn5IVO1DjWOrf8H-10" value="" style="group" vertex="1" connectable="0" parent="1">
          <mxGeometry x="260" y="270" width="300" height="140" as="geometry" />
        </mxCell>
        <mxCell id="TjWUEsn5IVO1DjWOrf8H-9" value="" style="rounded=1;whiteSpace=wrap;html=1;fillColor=#C3D7EE;" vertex="1" parent="TjWUEsn5IVO1DjWOrf8H-10">
          <mxGeometry width="300" height="140" as="geometry" />
        </mxCell>
        <mxCell id="TjWUEsn5IVO1DjWOrf8H-7" value="" style="shape=image;verticalLabelPosition=bottom;labelBackgroundColor=default;verticalAlign=top;aspect=fixed;imageAspect=0;image=data:image/png,iVBORw0KGgoAAAANSUhEUgAAARgAAAEYCAYAAACHjumMAABpfUlEQVR4nOydB1xTZ/fHT/YgCRBAQEAFEQQXiqJQ9x6otVVb27fLVu2w7b+1rd3jbe3bvYe1rdXWVuts66574t44EAGVTQgJCdnj/3megDIC3HtzbxL0fj+f+3n7YvLcm+Te85znPOf8DhdYWFhYGII1MCwsLIzBGhgWFhbGYA0MCwsLY7AGhoWFhTH4vr4AFvcEdc4cBByICI7PHAYAoQJZe54sok8SAKczAAjrv9YJzhK7sTJHV5RVXu/PBVW5G47W/bfm5n/7BbKo9E58SUg/9N/yev+NECsT5GJlYlcOONsDcIQN3+m8btGXnKkpPW4AAEtN6fEtFn1JdU3J8c3WmhKr9z8JS0twfH0BLABCeXR0YNzYSbLIvhnSdim9RYqYZObO5izVFWVdBACHzVh5xqTO0aC/2s3VFw2q7NLaF5Wb1JdybUY14QdW1j69E3CgI7g+j0ykiOkFAAK+JEQgViakIrshViYoBZLQnkx9MptZW2RUZZ/TFWXt0eZtWW9UnT/H1LlYiMEaGB8hixrQLSh27P3yDoMnSpSJ3X19PbciVmNlWXXBjo3aqzvWaHI3bPL19dyOsAbGywREpPbsMOzjTyUhiSN9fS23E1aj6krZ8W+eKz/143pfX8vtBGtgvERg3Jhh0QPfeV+kiBng62u5nbGZtdfKT//0TumRzxb7+lpuB1gDwzB8SUhY3ITFK2URfYf6+lpYbmLRF18r2PbMdH1R1mFfX8utDM/XF3CrwhMqhOGpTz3RafQ3q8VBcQwGbVmowBPKA0OSpj0sViZEGspOHbJbqo2+vqZbEdaDYQCBLDI6fuLvqyUhif19fS0srWM1qsqv73ntXk3uhl2+vpZbDdaDoZmIfs8/F5/5y58CaWi8r6+FhRg8gTQgOH7iQ5LQ5JDqq7v3O+1mi6+v6VaB9WBogi8JCYsdu3CxPCoj09fXwkIdc/X1s1d3PPeEvijrgK+v5VaA9WBoQBaVnpE0Y+cekaJDH19fC4tn8EWB4SFJ02c6wVmoLzp00tfX09ZhDYyHRPR7/onoQe8s5vHFob6+Fhb6kEdlTBIpE4J01/YectrNZl9fT1uFXSJ5QETa82+2T5v3jq+vg4U5dEUHt19eN22Ur6+jrcIaGArwhIrAuAk/r5FHZYzw9bWwMI/VqCrO/XvGeKPq/GlfX0tbgzUwJOFLQoKTZuzcLpCGsvGW2wgnOFWX100bri/KOuvra2lLsHowJOBLQsLiJ/2xkzUutx8c4ITGjf95jywqfYivr6UtwXowBJG1T+8TO27hZoEktJ2vr4UuZBIOxEcKgMcFkIg4kBAlAD7PdUvweQAhCh6EKrggFrq/TWx2gMpqO6i0DjBZnTf+XlBmw39HFKvtUKK2e+kTeYfr+958pOL0z0t8fR1tAdbAECAoPnNa3NiFPwFwFL6+FrJIRRxITxJBuyAe9IpzaTclRgmgQzvvao3pDA44dMm1GVNSaYfsaxa4eN0Khaq2aXyqctd/n7/l8Sd9fR3+DmtgWiFq0NvPhvea9YWvr6M1OByAnp2EEN+eD1EhPOjWSYg9EoXUv1fByAs6k2+Ga+U2uFZhh3MFFrhw3QoGs9PXl9YquqKDy/K3PD7LZqw0+fpa/BXWwLRA7NiFy4LjJ97v6+tojk7hfBjWUwypXYSQniT29eXQSm6xFQ5dNMPOUyY4ne+/mfsWfXHuxT/HZtiMlRW+vhZ/hDUwzdBxxGc/hyTdM9PX11EfZFDSEoTQM04IvWKF0D7k9pBUNpodcOyyBXs3R3LMcCbfv6R3DRXZxy6vmzrSbqnW+vpa/A3WwLghdszCj4O7THzB19eBaBfEhSkZATA2VeL1uIm/ggzO+sNGWHewBnKKbL6+HIxRfWlP7j/3j7XqS9jlUj1YA1MPSWhyRPSgd5bLozJ8Kg6VliiEkSkSGNBVBFGhrFFpCYPZAXvPmmDPWRNkXTCDzui72I3VqCq/tuulidq8rUd8dhF+BmtgapFFpQ+KG//zOr4oMMQX5x/VRwyDu4thYDex3wdm/RWHA+DwJRPsOGWCbSeNoPeJsXHaio989nbpkc8W+ODkfgdrYAAgtMeDmR2G/M/rYtAiAcDUgQEwfXAARLOeCq3ojQ5Yd9AAy3fXQJnG+1vhVbn/fJi/5YmXvX5iP+O2NjA8oUISmT5/frseD7/pze+iV6wAJqcHwPBeYpCz3grj7DpjhH+PG+HfE94Nj+iKDu66uv25ey26wnKvntiPuG0NDF8SEtZlyqrNEmViqrfOOa6vBHsrPWOF3jolJax2gCKVDfLLrDhPpSX4PIDIYD50bi8AgZ+Lf5RV2eGvLAP8vFUHdod3zmk1Vpblb5kzUV+U5VedNb3FbWlgZFHpGR1HfPadSNGhF9PnEgs4kNlfAtMGBUB8ewHTp2uRaoMDcoqsUFntwOn8NSYHXC62gt0OUKlz/Y0OQuRcvKWOiI3gg1LOg4hgHkSF8nASYKTSt8tBVbUdNh81wrKdelBVM29pbGatpvjQh8+rzi79hfGT+Rm3nYGJHrJgXrseD3/ijXNNGyiFmWPkOE3f2yAvZN85I5zIteAs2QPn/UszqXdnIUQqeTionZEk8slS0Wx1wh+79LBku94rAWFd4cE1BdufnmbVl/p/mjJN3DYGRhaVnhIzZMHnEmUio1vQyGMZ108CD4yQQUcv5q2cyrPA6StmuFhohbxSG+QW+0d+CFHCg3i4zKFbRyGOUfWKE4JE5B2jo9E7YF1WDSzfVYM9OSaxGlWlpce+erzi9M9/M3oiP+GWNzBCeXRMeJ8n5of1ePhJJj8vlwNwZ4YUHhklYzzDFrn4J3NdxYJHL5sh+6p/ZbbSBVpm9Utw1VT17SJiPNFQZ3DAqn01sHxPDagZNjS6ooO7So589satLi5+SxuYoPjMzNgxC5dyOBwlk+cZ2kMML00LhPBg5pZCJosT/sqqge0nTXDyiv/W5jAJ8giRdzihn4RxI/7V31pYur2G0XMgKs4uefn6ntc+ZPxEPuKWNDCS0OTE6EHvvCePypjK5HnQDDt3khyG9ZQwMn61wYEzVHeddmWqstykW0cBjO8nwTEcpnKIrpbZ4MPVWjh8kdn4lVF96Vxx1ofztPlb/2X0RD7gljMwUQPfnBeeMvu/ABwpk+eZPU4Oc8bLGRk7t9gKv+3Uw4bDbDdTIvSKE8Lj4+WQlihiZPz950zw9u8aqNIzu2zSlx5bnLdx5su3UmX2LWNgguIz74rKeP11kSKmN5Pn6dFJAK/NCIIuNG85V2jtsOOUEf45ZIBLhW0rQOsvRCp5MCJFDFMypNApnN7fR1vjgI9Wa2HLMWaNvs2sLS8//dO7Fad+Wmq3VOsYPZkXaPMGpjZhbrtEmdiT0fPwAN68Pwgm9KPXMSpR22DRZh38c4j1Vuikd2chPDNZQXtSY36pDeZ8pfLGblN5/pbH72rrQeA2a2B4QkVgZPr8x5UJU+bzRYHBTJ4rLVEI8+4KpDVRDnkrm44YYTcbW2GUbh0EeHdvdB8JyCT0bHvrDA74fmM1rNxnACezGS3Oqtz1S0uPffWOUXW+gNEzMUSbMzA8oUIW1uuxme1SHnuDLwpktJtisIwLr9wTCCNS6Aniohtzy3Ej/Lpdj8WwWbyHTMKByQOkcN/QAIigKZP44nULfLhKy7gAlhPAosldv7jowHvvWXSFRYyejGbalIGRRqR27Dj8478kysQUps/Vo5MAvnsqBKRiemY95LH8708t44FClpbhcgCenCiHR0bRF6D/YKUGVu0z0DZec6BlU9nxbx4rP/Wj1yv/qdImDIxQHh0Umfb8uyFJ98z1xvkeHimDmWNkEECDcdl63AC/7ajBQtYs/kN4EA9mDA2AqQOltGQMr9yrh0Wb9V6ZQHSFBzcX7n/rBaPq/HnGT+Yhfm9ggjpnDo4Z+v5KgSQknOlzoSXRew8FwYCungto5xZb4fWlVXC5jaXs324o5Vx4aWogjOrj+TK4rMoOz/9YCReve+U3d5SdWjS/aP87Xqmro4rfFtjzJSHSyAHz34sZ9NZPPIFUxvT54iL48OXjSugZ61kuRXGlDT5fVw0L/tQyvtPA4jlGixO2nzLB8ctmXO3tSaW3TMKF0b0lUKiy4XowhuHIIlJHy6LSBxjKTu+zmSr9UnDcLw2MLGpAz/hJfxwM7DB0vDfOl5YghKUvhGFZAU84eN4ET3+v9us2GyzuKVHbsZB4YAAHuneivrUtEnCwN8TjAu6EwDQiRUx8WM+Hn7MaKi8ayk9nM35CkviVgeGJ5Jzw1Lnzowe987NAGsb4kghwRq4MXpsRDFwPluHIa/nfSi18/Y+uQQtVlrbHwfNm2HPWiMtAPKl36hMvwhsF+7JNYPHCiimw04ipYmVCJ921vbuddrPfaHP4TQxGEprcruOIz7dKw7ozvkOECJRy4PunQyExmnpui87ggC/+qsYqaW0NtCSMVPJc8ghxQlh7oAaLZdPJkB5i/P2eybfApUJrm9tB691ZCC9ODfT4Hnn8axVc9FJ2ts2s1eRtenSUvijrmFdO2Ap+YWAEssjorvdsPeaNQC7U9mv+6gkl9O5MPd5ypcQKc7+rhHKN/z80CVF8LHWQEifEbVDuSBZjF74+xy6bYc5XlbSe95+32jVou1JZbceN0/acNcHZfCuUVvl/LpBYyIFXpgdCZn/qGdxqnR1mfVlJm2IgAWx5W+bcp8ndsMpbJ2wOnxsYZddpmR1Hfv4LBziMJs3VgR62Lx8P8Uhl7vuN1fDTFj2t10U3MWE8+PqJEIgJI+bma2rsMOLlMtrOL+QDZH3evsXXFKlssPecCZZs8450pScM6SGCd/4TTFl5z2x1woIVGth4xHslIWWnfny5aP/bPpWC8GkMJig+c1rs6G/XcRiufK4jIpgHP/1fKIQGUvvYdjvA099Xtom6obGpEhifRvxrFQu5uCaKLob1EsOo3i1v/SqkXOjRSQgT0iQ49uHPS6ir5XbYesKIP5ecQskBn8eBYb0kkFdq9cYOE0YWkTpSrExI0uRuWO2VE7rBZwZG2XXaf2JHf/sbAHhFF3FkbzH2XIJk1D7yoYtmmPejGs4WtI2EObQMbMmtP3/NAjmFVly6cOyyBb76qxoqtPQ94OP6SQgvQSUiLoxJlcCB8ybGleQ8QW90wqajRtzPiupOEzK63tphQkiUid0F8uhQbf7WzV45YSN8Iu+OPJdOI7/4zVvnQ+7thzOpi9ot26nHuS1tiXw36/3LRVZ4a5kGB1yZpmtMw8DoiVwzLpVAS4X+XUXw2Bh5AwVA5M3MGBoA7/7hl+kcN9DUOODj1dVw/LIF3v5PEKVs78fGyqFdMBfeWeadzxqadM9cnkAalr/l8Xu9csJ6eN2DUXadNjh29LfrveW5ZKZJ4H+PKIFDIdpUbXDAu39o4LedzEsn0o3B7IRHx8gbbL9vO2GEf9yIWHXvJACljEdrHOS9BxsWuK/aZ4DdZ0y4d/SF61b4+5ABKwEGyW5eoN0BuBtjWwAZcORxpXYRQjAFrzgxWgjtgriw95x3dpSRJ8MVKoy6a7u9Kv/gVQ9GEpqcFD3onb+9ZdiQcXnnAWpKDmiWf+rbSr+OC7TGmXwzzseoY2QfCRSU2yBUwYMesUIICuA22IKd/aUKjud67rp369h0W1ckaGjh0XLjcrH1Rv8kRIDY53sOpMgpssHU9yrgrfuDYNIA8mHEKRkB+H/fW+4dTyY8ZdaHRlV2vvriKq/tLnnVg+ly55+rRfKort4417CeYnj/YWqey7kCCzz5bSVoa9p20hwyLvUNiFTExRq26O/RoXxsaOpjtTthHw0zar8EEQzv1TDAGxPKwz2iYyP4eLu2T7wQnpkU2OD3yS2xtUmZ0D1nTfjzdYkiny+TFCOEiGAu7DnrHU8mILLvkKrLf69wWPReWfN7zYOJGbLgdYkycYg3zjWyt5hyzOXvrBr4bG016E1t27ggrleQ262gq/lZXETT2yo8mN/qb8K0uDaTvPGbBvekmjNeTjouMzk9ANdEfbya+WdeIAltFz/x9+U5a+4cabdUM/6Fe8WDkUWl9+0w5P3l3jgXmg2+fDykiUtOhB82VcNn63ReSe32BkI+wAQCW9VXSqxwNMcCn6/TQg0NhvXRsXJKafZv/FqFY0d0EB3Kw1vD6MH1FmcLrHC2wAITKSTlde8khIJyK1wpYf7mE0hDOzjs5kp9UdYhps/lFQ8metDbXikpT4jiw7dPheAdCbIg47Jos3eT53rFCiFCycMPA7qxzuRbaN2mdRe01egduCzgaoUNSirtuDCztQb3ZKkfVyFClc4O8xdX0RZkRt/nshfDsEe2fLceJ0VqarwTSzt22YJjWZ/OUpL2CP/3sBKEvCrY4IVkvHa9HntTdXbp70x3MGA8qhaWMuuhmIFvL2H6PAopB1a+2g7CKCTRedu4zB4nh1lj5W4LLL/6uxqWbqfvWo5/3TCbdttJI7y8uIq28RsjFXFg3yeRDf62/rAB9p0z4VyXxvKjhy6Y4LWlGloNwDsPBEFmPc9NpbXD679WYS/NW6TGC2HRs+ST051OgFlfqrzSXE9femxtzurJdzN5DkaXSEJ5dEinUV/+xRNIA5g8T7CMC5/PDoG4SHJBNr3RAV/8pYVfd3hnG3pIDzEsfDoE/29zwef+XV1VuLvPmGjxLGYMCQCR8ObJ0LJh41EDDrZ2jRbAuL5S6JsggpmjZPDIaBnOT/k7y0B5mTikZ9MM3qXbdbDtpAn3y54+uOGtsHibHk7n0fswTR8kbdCMTSrmwug+UghVcLGn6I34WonajjVmunUUQDAJGRB0XwztKYbDl8yMl08IZe2TDKrsPeaqK4wJijNqYKIHvf2OLDJtNJPnQD/Iz8+F4qpgMiDjMufrSq9F7yekSeCDmUpCAUDkhaFZX2f0/EFI6iCAzvUMb1AAF+vR3j0wAMb1k+Kez6ldRBAdxsf5HOhh3HfOTLkQ8YERsibVx3VBc+SljOwtbqC7w+E4Yetxequ40bKvS5SgQRyIxwN8j9yZLsVewimajZo7kJHZftIEA7uJSBkZkYCDhav+PWGk5R5oiYCIPvEVp3/6hanxGU12UybdM5PJ8RGzxja9oYnw7fpq3DzeG4QFcuHFuwOb/L2gzIqXLIWqm+7CsctmuPu9ctq6DpyhIH7VL4G64FKXqIbxF43e0cBYHTjf0KCnJ9HfdrdQZceV4S8vVuPM4fogA//0ZAWsf7sd6VgRFar0DnjlF/JLUrmUC2/9J4iRa6qPSB4zMCh+QgZT4zNmYCLSnn+dAxDC1PiAb04RzBqrIP2+Hza5etp4iznj5Q0CfjqDA95eVgV3v1eB4yF3/rccBwaHzy/BDwadMgZFlcTXOmhZhNz6xkaADIUVDa/9560NCyhPXG44toAHkBTDzIOOlmXNbX0j72bpvFB4booC5BJmQ5G5JTb8+6LfnQzIu5w/jfz9TZbItHnfMjU2Y99s94ePXhLK2icwNT7yWv6YH0b6fb7YLWocaP1piw6+3+idrqB8HsDhL9zLJmRdMOECxwPnTZB91YpdejroHMnHxl+ldfWBasy298MbLJPoDmzXkRIngJ+fa/0eKdfYYdwb9ElVNAfVwO8Hf2pg1X5mJ8TzfwzrZFLnXKV7XEamjsDYMaOZNC7BMi68/zD5EgBfGBehm2/4yCViHsLYvhKsOvfLv9Sv2WYHeH+FBkIUPChWu7amzxZYGM31uVJiazGf46Wfq+C/DwTdiJH0iRfC0u30XkNQABc+foxYsiUydgFiDi05QC1xPJfaFvb/TQnEEg90lHE0R2jyfTML97/9Ft3jMmJglAlT7mJi3Do+fiyY9Pp51b4arxsXhLut6B6xwlZvlsfHy2HWOFdzsGM5Zo9kItYc8K8CwpNXLDDx7XIcm+oVJ4ScIvpjYXPGy5qIuCOj+n8LKyG+PR/mTgq8YfzX7NczblzqQL/7h6u08N5DxCdIsZCDO15Mersc1AzVxgUnTpnKhIFhJAYj7zB4IhPjIh4dIyMtdXmuwALf/OMbuQWTGzsypk/LfZeQ51JnXBC94z1rpeKvoOXZ9pMmuFZOb6ZfiJyLt98b838LVXj79/ddNTD+jVL4c48eB9m/89JytY7Nx4zwy7/kzikRcXF+D1MIJKHJktDkOLrHpX2bOjB2zMDQpHuepXtcqBVhfu3eIJzLQZRLhVZ44ptKn9YWdY7kN8jRQcsVNHseaSbx68dnQxuUOpzOszDqHt9qvPtgECTGNNwJW3ewBpbvvunJmSxOHMxGBs4XpSHotw8P4kLXGOI7djFhfLytf5whsSqnzVxafW33fjrHpN2DUXQYPJnuMRFKGRd3ARALiRsXjd6BJRf0DOcStMYXfzX1nh4ZLcdBv8agz9m41EGt839xbH9h0gAJlqasD7oPvl3vXS+FCO8u18LJK+R27GaPU8Dg7sx4tHIGnl36DUzH4WPpHhPxxv1BeEuTDB+t0viFnkuJ2g4r9zbNFn5xaiAORtbB4wI8c2fTbUlPto1vJ8KDufB/dzbNN3rztyq/uA/csWC5lvQE8tLUQJAxsLUuUSYOECsT2tE5Jq0GRiCLDBEpOnSnc0zEHckiGNydXL/oJdt0sPUEvRminrBosw5nD9enS5Rrq31SfwncMzgA1r8d3qQSd9sJI23bx7c6T09UQGBAw1t681GDXxvo/DIbPPeDmtR7IkP48NBIZropyzsModWLodXAhCTNuJ/O8RASIQeev4tcstGBbBPusuhPoBn02w1Nryk8mAdv/ScYXpoW2ECjFmqXRt+sb1tawL5icA8RLn2oj87g/jv3N85dtcJXf5NTtbtvqAySYqg3hGuO0OQZtOr20mpgFB3ptX6IN+8Lgk7hxL9Ik8UJH6/xT+FotEzadpJYKX5xpQ3u/6gCp72ztM5LU5vusCz4U9NmvL9ft9dAfinx7XqxkIPzaRRSepdKEmXicL4khLY2QrQZGJ5QIZNF9B1O13hQu2s0OpV4rYrDAfDcokq4XuG/N9XLi6twTk5zoM+w8YgBHvlM1Sa6RvoLyNOrqhfL2J9tgm1+tERuDScA7v5Yoia+pYU83qkD6RcqCIjoO5iusWjbplZ0GDpSmTCZtiUSnwfwzZMhDYKgrYFuMm92zqPK/mwzbD5mwAbE7nBirdojOWZYe8Dg6v531EibstvtQm6xDdbWdiQQ8jnw9jKNz3cPyYK873NXLXBnOnGj0StOiKU96Axi2wzlhdXXdu+gYyzaMnmlYd360TUW4slMOXRsR/zyLly34BakbQXkZS3drqc9Rf52BhmUb3Dszf/jLs1xJt+KJ8q5E4nFHUUC11Lpzv+W03YNkrBuA+gai7YlkiwqPZ2usbpGC+ChkXLCr682OODZ78lF4llY/JVf/tXjRnVEiQnj411IupBHpafRNRZtBkYelT6IrrGeI7lr9MkaLVT6cctRFhayvPmbhtTrZ4+T09hXiiMN6pw5io6RaDEwfEmIHGhqYD+ytxjrYBDlWrmtTcRdWFjIUKK24/IGogTJuPD6jKZJhlThS0Pca3yQhBYDI4tKpyV7VyLkwPxp5L4kXxUxsrAwzXfrdXhXkSij+0ghuQM9uTHyqPQJdIxDi4EJjs+kRXf3znRpkxL7lth1xgg7TredrUgWFjKo9Q5c5kCGh0fRk+EbFD+Rlq1qujwYjw2MTMyBh0h8OdcrbHgrkoXlVmbzMSMuFyHKiBQJJEZ5vjnMAQiXhCZ7LBrnsYERByd0EEhCO3g6zri+ElI9jRZu1LW5PAcWFip8tpZcZvrDo4jvwLZEQGS/Pp6O4bGBkYb36unpGIgHSRRvnb9qcav1ysJyK1KudZCqSRudKnHbH5ws4sDYFE/H8NjAiBQxqZ6Ocd+wAFK9jF9ZwlxnQhYWf+SXf/UN2tu0xhv3ea5+Jwnr1t/TMTw2MLL26R5dhEzCgUdIxF7WHzawBYAstyU/bSGeodwzVgh9OlPvbwWunSSPnQePDYw8Ov0OT94/vi+5naPfdrSdcoBbhfYhPJyflNlfAlMypPi/6doOZSHOhsNGKCPRM6txm17ycORBnTM9asrm0UJNFpWeBMDxqDPUAyOIfwnbThpbbIfBQh+p8UKYkCaFAV1FTXRq6jBbnbhqeedpE+w8ZfSJtu3thBMAPlunhQ9nEmvHMqqPBL7fWA1XPRBVF4ckDIYrcJDq+z3yYGRR6R7pv5CJvVQbHPDBn/6p83Ir0SmcD0ueD8UNwianS5s1LlBbaDciRQILHgqGf94Ox8aIhVm2nzTh9sJEefVez2IxwfGZd3vyfo8MjKLDEI/qFe5MJ15dsPmoETdPZ2GOYT3F2Lj0iCW/dg8L5MG3T4XgVqwszLLKjb5zc/TtIsLdC6giUSb29USAivKZhfJopScCU2kJQugcSWwd73AA/LaTjb0wCTL2n5DsOOiO/wyX4a6NzHZ7vr3ZfspEakdpMomJ3B2KjsNHUH0v5btJGp7ikf7LnRnEP/T2k6zwNZOM7C2mZVuzjglpUvjfTPKtfVmIs4zEZseUDM+CvQHtUijLN1A2MJ54L8EyLgzpQVwKcy2JqlIWciD3+d0HiQUNyTCqtwQbLhZm2HLciEXNidAuiAejPPgtAiL7jqT6XsoGRh4zmPL21d0DpYQbqF0pscLRZjogsnjOY2Plbhv01+dAtgmeW6SG/v9XDGnPFsMz31fCX1mtG/0nM9l4DFPojE74k0QshkydX2OkYd0H8CVKSqteSgaGJ1TIJSGJAym9lwswfRBxl+2HTW1X/tDfaRfExcuZ5rhcbIXHvlDBMwvVsPesCWx2ALvD1Qju3T+0MOHNMth3rvlq9o7t+Dh3hoUZlu+uadJrqzmSYoTQpT31rJSAiH5jqLyPkoEJjBszhcr7oLaoMURBLLGuuNIGO06xcgxM8cQERYMe2PU5ecWMjcvJK817j6VVdvi/H9SwaHPzdTLPTma9GKbQ1DhwDhJRZgylHosJihszlcr7KBmYgPAUyinEQ3sSXwuyBY3MMmmAe+8FeSmvLqkiXK3+wyY9LkB1h1LOg5Q4NuuXKchIOQztSd2blIan9KbyPkoGRtFxxEQq7xMLOXBHMvEPuf6QgcppWAjQrWPzD/2mowbSPZlW7Gk+HkA0HYGFPAcvmKGI4JZ1YACXcn2SRJnYR6xMIK0PQ9rABMVnDhQpYmLJvg8xoKsQhATvtTP5Frjmxw3U2jriZpZGUKtzTJbrLdzkRJfELNRY2UIjv8YM7kF9Nykk+d45ZN9D2sBEpj0/n+x76iCzNb34Xza4yyTtWsjuzG5mudMS2VeJtz1loZd1Bw2Eg70jUqgbmPCU2TN5QgUp0WxSBkasTOgoUSZmkr6yWoYQtJ7lGjvsO0e83oKFPLYWnMOW/q05iKYdsNBPjckJB84TC/a2D+FD9xaWxy3DCQpOnEIqPELKwATFZ1LuvB8XwcdrQCK0tPXJQg/qFvpIdY0hfwMmRrFxFl+y5yzxZybNg6LU4PjMe8i8npSBCek6/XHSV1QLmdKATUfZ4C7TXKtoPmZCxcD0jGs+eFhQxi6fmGb3GRPubU2Eu++gXpskj8rIFCsTkoi+nrCBaZcy6wGRIqYT1Qub1J/Yh1Jp7XAqj70hmaZC62i2YG58PylEhRAPzKLl0b1Dms+xuFzECsUwjdkKhLKrERHBfI86D3QY/vHbRF9L2MCE95n7GtUL6tZBQLhK95/DrPfiLVrqHLhkXiihzE+ZhANfPq5stiNEbrEV8stYA+MN1pN4dvolUl8mySL6TpeEJhNyNgg99UHxmZkCaWgi1QvqT2LNt/kom1znLX7fVYNV6dyhlPPgu7kh0KNT88ulsEAufD5b2WKr3xW72UJVb3Hxug1Kq4gZ8zQPDAwitNv9hLasCflJyoQ7SQV2GtOToIDR9Qob5JWys523sNoA/tyrhwdHuO+jg4zMknlhkHXBhHf1kDcC2Gvh4h3BsX0lzZYaQG2h6ros1iP1JocvmmFyeuuPdS8KomL1CU6Yct/1Pa+90trrCBmYoLhx//HkYlK7EPswZKQAWejh1+01zRqYOtKTxPggyyK2UNXrHM+1wOT01muO0CTRt4sQjl2mplTAFwV2CIrPnKbJ3bCqpde1ukSKHvIe4YCOO3rGCkAqIhZ/uVTIBne9TZXeAbO/VBHWFiHKD5uqsfIai3e5eJ34MzSwu2d6PZFpz7/V2mtafPKF8ujIdj0eecOTixiRQjx798gl1oPxBWjWm/N1Jah19JRmvPVbFSzazEqc+oIrJTbCv+NID7J6wVWf1E3ZdVqLouAtGpiQpOnTPRUGT08iFkwymB0etVdg8QzkPd7/UQWcK6Au7oVu7Ac/qYANR9hAvS85f42YFxOp5HskCA4uGzGjpX9vcXRl1+nPeHJyhZRDuJK2Jd0RFu9QrnHArC9VuIMg0dqWOrYcM8K0BRVsTZIfcIrEs9TFwwxseVTG3UJ5dFRz/96sgQmKzxwqUsTEeXLyLu2JX/y5AvbG9AcsNoDvN+pg6PxS+JZgw/UXf1LDa0ur2LYyfsKZfOIGJrmDZ7tJgHPknniwuX9r1sAoE6Y84umJiW5PI87ms/EXf8LpBFj8rx5302wNMqpqLMxzjkQ1PPXCx5sEJ0xpNifGrYERyCKDg+LGerQ1jegUQTwd+UIhm//CwkIHZivA+WvEjEwsiWe0OfiiwI5hKbPc2gu3BiY8de5zdDTGjwkjVs9SrrGDRs+61ywsdHGWYLC+fQgf+DTogYUmz3jZ3d+bmC+hPDq0XY+HX/X8lAC9YontIB3LZZdHTNBeyYPMekWmhy6a4Ey+b2Nd6JpG95GAsDYD+PhlM94mZ6GXozlmuGcwsVYld3QTwZ4znj2DtVvWE9QXV22s//cmBkaZNP1eAPDYprVUw9KYPWfYNTzd3JkhhTdmNOzWOGe8HBuZdQeJp+/3bkGGoQ6iDdaSYgTw8KjGWcNyWHOgBt5foSV8TSyts+cscYPRNVrgsYFBBHYa8WCrBkYelU65D219IpXEbVQ+W39EK8i4vzzNfSvYAV3F+KCTD2d61hny7jsCsHTEr9vZwki6cDgAKrT2Zqvc6xMbQY9YmDxm8DC+RMmxGdU3KmgbxFkEssggeVTGnXScbACJCuorJayBoZNX7w0CgeexO6/y7ORACCKoeMhCjKsExdv7tVANTwa+KDAsOPHuBlvWDX7RkOQZc2k5EwBIxcRulpwidv1NJxIhBxLaqHylJ50HWZpSQFCHJ0hGn2EPTZ7RIDmX3+gfZ9N1ogAxMRHoagMxmb+2AJfjagvB57k8OJmEi9uDoAc+PPimq6o3OuBioRUXGiJO5Fpwmv2hi2bCzc6aQylvu16AsAXph7ZE3y5C/NB2aS+AjuGuXZr4SAFEKPkgqL0NLDaA6xXWG/IkucVWbBCKVHa4QKJgsSUqq4nvzAr5rmvylNr+SYkmdc4lqG9gAmPHDBLK2sd4fgoX6QTX+VRaZPgT6UkiuCNZBN07CqFHrBDyS624pWr2VStOvUfr4N92NC38U0i5EBfJBx6XA8kdBBAbLsGxjFK1DU7mWbCx2XXahBXjyVBUaYdqgwOP39Yo07hq0f4zPABC5Dw4fMmMvwd/p1M4H0b3EUNqFxH07CQCTY0dax5fuGaFvBIbVFbb4c89NTguUh9kUDtH8rHaQFggD/oliLBRQt7/sRwTTmA8kG2+8b2Q5VIh8WcrKUYAp2naYQxNvm9K4f63P4D6BiYoboxHolL1Qet/DsHJyNMZ2xf06CTA278jeomhUufAD8F3G6uxUSFjEHadafo39EOndhHChH5SeOc/wbjDwtoDNbCXRBuXT9Zo4b8PBBN+vT+w45QRcotdU+jZfAsWtHpxaiD2hLceN8KqfTVQqPKfYljkKWamSWBCmhRC5FzYdcaE1fteK6gCFQnPIetC0981IpgHKXFCGJ4ihpenB2FD8c8hA2w7YSJVjkHm2WpJOIwsgXFjZ9QZmBujJt2387REmdiTjhP0jBXAL8+HEXrtM99XwoHzLT88vWIF0L+rGBZt9q2AUbsgLrxwdyCWoDiRa4av/q6GswzWUIUFcuGeIQHwyCg5FFfa4MNVWtifTczQvDRVAfcMaZoHUVZlxw+zrpWbr8bkAAGPA/cPD8DKdi2BvovKFtqgIEwWJ57pe3Rquu19/poFHvpU1WSGR/RPFMIzkwNxp4M9Z03w1V/VUECh8yRdBMu48OgYGcwYKsO/yR+7a2D1vhqwMmT7uFyAh0bIcON6Po8Dv+/SY6lTIh0EZBIO7PkoktB5Pl+nhWU76dvFO7ukb6hVX1KJDYw4OKFD8v27rtI1eGq8EBY9G0rotbO/VLWaaBWp5MEHM4MhOoSPcyZW768h3TvZE/onimBifwmM6yfF/bKXbNdBQZn3ZlM0o00dJIXJA6S4n9GynXo8q7e2Zp4+WIqNYXgQDy/VTl6xwPLdNTdiP0RA3/uo3i1r+qQ+XUx4vLvvkMLoVAleEmj0Djh5xQy/bNO3Otv2iRfCXXdIYWSKFHafNcKqvTVeTdBD9+DDo2Qwrq8ETyrrDtbAjlMmXLPlLSb0k8CDI2XYY/rvHxpCXu3xr9sTGvuHTTpaJ/DiI58+V3rksy+wgYka+NZz4SmzP6Nr8KE9RPDp7BBCr53xQTnkEGxrERfBh3l3K3Aex5k8CyzcpMPrdCYQCQDuGRwA9w+XQaiCh1vZLtmmJx0ToRtkZGaOkUF0KB8vG37crGvVe/AEug2MpyikHLh/mAwn7BWqrHg2/+ugARwM/SwZySKYNVaOC3f/PWHEXmuJ2rdLNfQcDO0pxsWorbHzgwhCDQ9/3qqD7zbQZ2D0pcd256yePAzHYBQdBo+nbWT0BRDUgAEcPSfu7uaV2uCpb9UQ356Pk7PeeSAIzyDbTxpxHORSoZXU+rcxaFzkwqd2EeIYQF6JDT/A20+SW/syyd+HDLi1y/BeYhiTKoF/34/AWsaHL5rhdJ4FTudbKLV+hdr1cq84IZ6tNx/zT9GoaoMTy0ms3FuDs5XR0uGZSQrYl23CHs3F61ZSspGNiQ7l4aB7vwQRDuBzOBzYfcYIC1ZoSN2rTIKeg7xSYoqBJ66YYVjP1lUlPdWFaYwsou9QnlAhxQZGouw6ks7B0VqRKFRmHvRDf7hKi48+nYV4Rr9vmCveYDA54MAFM1TpHHAqzwL2eidA3kf97XO5hItbqkiFHLijm2vXS2dwwMajBnjwY5Xf9vNBRhW55+hoF6SFcX2lMKq3GJ6aqMD/XteLKLvAAiVVN60NMjzo6xDWS06ICeVDYowAz4p14mB/H6rxWwNTB/Laft6qx0eX9nyYPjgAnpwghxCFK16075wJdEYHDqJabDfvAasNmiQh9okX4aAtWtrXxZu2HDPAhyu1sI9gzMtfITrZSEX0pwhIwrr148vap6fRPjJB6AiMnbhigRPfqfF/94xFD4or5yQhio/X7IigAC7IxBwcKTdYnHjtb6wNkuWj2UDngDUHDHiL+VqF/+xUEKFc44Cl2/X4kEs5eBeqe0chSMUcSE8WA48L+AiR80Ai4mDjZDA7cd4NMjZ2B2CZzIvXrHC2QIsNU0t9q/2Ry8U2WLBCi4/YcD7OPUmIEuBq/snprntAxOdAiIKLt4QNZgdoaxxQY3bdA9U1DjzG0UtmvBN4kRWfpwV5VHpvviQsuQfdAxNN9jqdR+/scCbf6vNqYV+iMzjhyCULPm5XkIFEx262gBZz/pq11Rga1GaA040kNLk7ly8KjKZ7YKI6MGR2M1hYWMhTXElsmd8pnP4yDZ4osDNXFpVOuwdDJgbDwsLiewII1g6SQRLarTMaldh+MgsLCwsJ+KLAGC5PqGBLWFlYWBiBKw3rFuvri2BhYbk1Qd4LsZx+llbpFSuEHrECnPmb1MGVUxIdwocIN+p+OoMDrpTawGZ3YtHzgjIb7meDq2/b2DZxHe2VPKxS362jEKJCePhzC3iuimGZpOkav0Rtw1mxVrtrq1ytc8DlImtt/pJPPoLHJETxISlGCO1DXAl7QgEH3w/ugqg2u0sPyWB24vshp8iGRaLQvXCr9GnnA3DokbO6DenYjgdj+0ohI0kE3d0U8UGt6M+xy02349GDh25Gqajpg1eosmHR5h2nTDhD2Zv1Lp7w1n+CoG8jdTSTxQlXSqw38o7qI5dwoWesCOul9E9s+L4TuS6phi3HjFiCwl8JEHPwNvDQnmJITxK7Vegvq7K7vQd4XHQP8W8k9w3rdfPf9EYH7D5rggPZJjh43gx6H5eoUIXvBGclBzh+HeiNCOZhjRV/YUBXIcwZr2jSWC7rgglXO18ts0EWCR0TZKh6xAphYDcxpCWIcJ0ROqZkBOAixe82VMM/h/w7sxZqt0Q3aew4iza32HZDTKk10EOZkSyGDmEuTRT0PfSJF+HjyUwF7D1rgm83VPtNqj7UVtY/MkqOM4jrk33Vgu8B5Imhe4BI1TMiRM6F3vFCXKqCjG2XKAFkpknxYTQ7YPV+A9YVamveLd9SfT1fpOjg1wZm+fwwXNS4+ZgRl+z7AhmaqfpIYNqgAEiMdi1/kKex4bABK9KdvGKhXHB3tdwOV8uNsOGwy4h0jRHgJUb/riKYPCAA3ro/GD9oG44YYM1+g8+L7Zrjnd+pdQZAS4W9tb/rsp01WAWwW0dXPVBmfwlWCUTH2XwL/g42HTXiZYUvGNlbjLV60PUAbnLmxF7WjlNGOFNgwcmOVECGY/tJEz4QoQoupCWK8HkGdRPDAyNkMCVDio3Wmv01cDSnbSRT8i26Qr1I0cHX19Eiqmo7frjRgWaGBSs0jOqw1AfNrvcOCYCHRspuuLK5xVb4bK0WDjOUMVtXsIeWSGjWmndXIAzqLsYzJjo2HTHA1+urvSpZ4U1MVicuXETHwk06mDZICg8Ml2EvDx1PTFDg6vbfd3mvC0FqvBBevTcQOoW7JhfkVSzdroeftuoZWcKqqh3YkKIjWMbFRZ3oPkTLMXSgJdfc7ypxbZU/w0cTiK8vojUe+VyFpRPuuiMAu45L5oXhINg/hww4JZyJ5RPyUu5Ml+IZq86wHL9shpX7am7MMt7geoUd/u8HNQ6Uoods4gApjE9zHf+eMGIPqjXBrrbOqn0uz21EihjuHhiAPZvn7wrED9zWE0b4fSc5jRuiIC9iTKoEJg2QQnz7m17rL//qYdNRAy0atkRAn+27DTqsA3RXRgDWBurbReT3xsUJYOGb1Dkn5FEZtFZT043e6LxROXvPYCnMHqfABuDFqYH4OJBtgo1HjXD4ogk0NdSnEzTmwG4i3Hmw7oYCXONkwYpf3qhzEvAAVr3WDlcCP/KZ6kY17JUSG7z9uwZ7LjNHy+DeITJ8nehAs+mGI0Yc+/DU2AzoKsJawX940TsgAlp+bjtpwkdyBwG8Mj0QkjsKcayKTuMSqeTh7yAzTQIpnW8GnpEX/ekaLfx7wnc1TtUGJyzZrsfHrLHEujYShQlFPpP60lG+zVhZRffAKi2xq6XSE/fPvQZ8jO4jhqE9JdC9kwBLLdTJLZRV2eG6yoYfyLp+19UGV/Ws0eLEgkXBMt4NDdIuUXwIlHLxLlB9XVK0RDmaY4b1hw1e7duElkIxYa4tze/mhsCLP6pBW29dX1ntgI9XV8NPW/Qwtq8ERvaWYP3WaYMC8AG1gUa9yYljFnYHYMkKtc6B5SocTif+vHWyBkI+4M+ukHJvxJaQ++1vBqY+569Z4YFPVDhW1Zz2y+xxMujQjg/Xyl33osXmxOLbOqMTF/aFBfJAXFvgFxbIxa9tr+ThXs11oHvpeK4Ze8l7zpoo6+wwwY9biOnBuEsPcEeFhv573GaorObrirKyiKl2EoeoOHPPZrZ2iYBmkrrZJDGaj11G5HW0D+HhSHzj7dKWQLPT2QILzsW4cM2KRZsqtL6JbwxPudmNITVeBAufDoVZX6maSEqiWXv57hp8oMckLVGExaLQ7N4uiIe1bBtv/bZETpEVDp43YWX5fef8f8cKaicBqM2/+XyOEu/EzP6qEu9eaWucWCeHKMh4IMN84HwNHvfkFTMOvrd1iLZwLmZg40BfnHUYeTBn6R6YaJJU3SzqKZcKbfhoDHrYkMFpjuyrVr/bkbkjuWG7l4RoAXw6Swlzvqps9j3I9By+ZG4iHyqTcKB/ggg4zUxiFpsr36QtdnaoA3mkn8xS3ljSIq/uuw06+HNvDT5iw/nQuYWGbsgjPHXFAm33G2gZJooYiWJU5xzjm9Q5aqtRVSCQhHby2ZUwBHKl0dFW6NtF6LafEfLG3nswCF7/VUNqPGQ4dpy+dXVROkfy4fPZSogKvWlAMpJEDbRl6/RhWLyPWZN3Cd/N+qKsnXQOTDQGA7WzLIuLKRnNu/Tj+klxXIHFRbCMC9/PDWlgXBBJHYSMiCe1VeIiiNUyl9CdLe0EjVF1PhcbmKrcDcvoHJto021EfCRbzA21mqjDU1qOGcwZr2CNTK1i4ndPhTS7xE7tQj22d6vRmaAAP90xmPJzS5ZAXfN7Te6GXQBOA61nIAiPy842UJvIJSRga5GRmTn69jUyyHNZ9mIYjk01R3IH1sD4Gn1R1gaoMzAITd6WzXQNXqgi4cG0p7ddQltlYHdivbwBb8EqYFD3269GNSyQC98+FYJF3VuiVxx7TyG6RhNfHVwpoS9WaTNryzW5G3ZAfQOjK8paT9cJykiksBNpCnU7MJiEgRHwAb6YE4K7DN4u9E8UwcpX293I1WmJPp2Jf5e3MmR2kDQ0Jitq87bcsCU3Dcz1vbR5MFCbpEQEokGoW5kQORfnrpDl5emBjFyPvzGkpwjnubjbYXOHUOBKUbjd6RpD/DugM11De3Xnxrr/vvF0m9SXy3VFB1fJozKm0XGSMwUWGBXc+gxLtMVJW4TPcy0BA9w0tbLZASf0QW32LhWyr/p/Ra1MwoH4SAHWPmlMjdmlFdNSTU1Gkgg+m0W+2D8qhOc3KQqdwvl4EnFHQRlzAmNEDTLQGOR1Op1q3bW9m+r+fwP3oeLs0q/oMjBEuVVmGpHAZSjQUic2gt9qoPHAeRM8872rYVxGMrl4Sm6xFWZ8WAEOPyum7tZRAL07C3HpQe84IYQGEvfKjuaYoVRth/3nXQJLdXIMVO8PtJTa5sWi1DruSBbhZMmoUB7WtSGK0eyA/eddWkLnCiy0dJTsTjCLl07KTy9aYrdU37j4BgZGk7thv7n6ep5IERPn6YlO55mJNXwScXFNCFFhHn8iMYqPq23v6CYmHayur2dCJK5Qn7BAHq4n8re+Us9MVpAq0ahPvwTX+yYOcG3V/3PIAO/8roEVe2uAy+VAWqIQencmPjYydN4AeSYjektgZIoYUil+dqh9Duo/LxYrwO6zRjh0wQx7z5ko/dZBBOOb7tT2qFJ5fsW39f9/kwBI9dUdK8N6PPyypyciU8szsJvIqxIInjImVQyPjpG3mmOQX2qF3GYKJU31DMzGIwaYMVSGU/17dhK2uksSGMCF/z4YBE/Xtsz1V6x210TT0sORGCXAhYaNmTRACheuWWDlPgMs2qyDk7lCWPgM8Qc4hYQxokJcBB9mjZPjavaW0BkccCzX3GyhpFTIgX6J4iYpCkIB3KiWR6zZXwPLdulvFG8SoWsMMSNLJjG2JYyVl/ab1Dl59f/W5Jetyt2wgQ4Ds5+Ei5cUIyBkYEb1FsPO0yafCEKj2SCzvwRn29aJDtVRobVjF/90nsXV67rURmrGWbRZjw+ojVl8ODMYBnRt2b3OSBLDXRlSWHvQJ+lLbll/2ABLtunBaHbCuasWUtXHkUoeLlrsGM6HPvFCXENUJzuqkHLgubvIB7TRmHQGL8UCDi5GvWdIAO7/XR+90YHFyk/kuopmNTUOUlX4PK5rOSgRcSAlToT/Gy21uLVOyN0DA2DSgAA4fMkEH6zUtvq50HKVKHTpCVVd2bCh8d+aGBh9UdYBo/rSAYky8Q5PToaWPMWVtgbl783hmm10rb5u6qAAePZOBaw94JJN9IZOb2q8EDdQH5EiuVHeD7XbettPGWHdQUOzkgFU0Bud8MavGlj7ejuQtxKke/4uBX6Qc4r8o9amTvKTCuiBQcfxXAv+fetAM/vnc0IILSN3nzFBXqkVayWj34Qu4xIexINJAyRYgydI1vA32XnaiIW/0ATpibIdmjTrVBrreoujcw3pLobRqWI84Qj4gOM6VbrWFVaQkSYKMoye4gQwqS+sXNT4726f/pIjn74UN3bRAU9PWqy2EzMwccS+jOOXzdC3iwKemug6thw3wrIderhA4wNex5hUCTw6RtZkGWQ0O7AWy5LtxPQ4qKDWueQS0UzZEmjd/s2TIXDvBxX4PbciaClK5P5wOADeW66hNS6VEMXHUqlj3cg+/HWwBhb/q2e04wGaxP4+ZMBHx3Z8eDJTjrWCTNbWLVm3jsSeKbSMLabhM5Sf+uE7i66wieVz+/RrcjceNFdfPy9SxCR7clK0ZCAa9EMuXfbVlg1F1gUz3D/McUNEZ2yqBB9Ywf2CGS5ct2CJSbIGB80MPTsJsZJbrzgh9OsiarIDUqq24YDj+kNG7P4yza879DBxgMRtW5P6hCh48NuLoXhHyhNhrFAFF9/E6PMjz+nLv6opj0UXmWkSeGysnNBrP1jpMi7BMi5eZtWJbZGhUzgf66d07yTE3R0ax4Z0Bgee1JZu13td5uNquQ3mL65qdru7MUQTN88V0LE8ctoqz6/4wt2/NOtelJ38/psOQ97/zpPTFpAok0+Iat3AIBdy+vsVcN+wAKz7EVpb7NYlSoCP+hSpbHC+1tA4HS5RKZ3RCaGB3Bv5AUIeB9KTmwbY6pN91aVkv3Kvd2MdaPm3YIUGFjykbPW1EcF8WPh0CDz2RWWDQtOIYB7u15PSWYjV7KprHFjdLrSemptSzsXCVvWhc1eBKjOGBsALdxOLu1wpscKa2mXV/OmBN3ZjNHo7nLhy09AgA6StceC8pLB6iY1dowU3VATdUVlth41HjPDLNh2WrfQlRHJmurTnN1BnbInLNCyvq3I3rDWpc667+7dmv9Xqgh3LYYjzEwAOcVmwRpy/Rnxt172jANYdbP11ZRo7fL6uGs+wA5JE2FKjhyiskccRFcpvUspPlJxCK25DseOUyadaIluOmWBMqonQbKSU82DJvFD4eLUWL6+g1kit2FODYxMZSSJcZdwnXtRq1rDN7ruHKCiAC/PuVsD4fsRvO3Q/QK2ecP2t3iAZD4b3olZOca3cBkcvm2HPGc91jr0Nmdwh5P17ijpn3cLm/q3ZJ9CiK9QgyxQcP/E/VE9cUGbHa2MuAa8uiWRClcMJOCELHR+s1OJtw96dhdAvUYT/m2iZOtQmeVVo7fhB3HvO5Fdq7e/+roEtCyLcZsI2Bnlm7z4YjLd4P1qlvdH4DBmatQcNN3acEqL4eIeiWycBDEyWgNnqwFvkucU2vKxtrIznLTq24+Fixkgl8Ylh41EDXh4D9nAtMH+xGufUIK+kuW6b7kDedk6RFQunH7pobtMxLTIlArkeFjlajaoCbd7WXc39e4u/pDpn3WJPDAxizzkjDOvZ+iySGC3EmihUG2rl1W4Pr6m3A8HnupZPUjep+sjVJLOE8xVqvQO++lsLz00hvk2LHrBVr7XDGrvbT5pw1rCq+uYDk1OEHqa6IDXtmu+kSYwW4O3/cX0lhEWqEZeLrfC/FTebvaFlYP3mZVC7/RsVwmvi4SKqjQ6cVuBPYt500DueeA6Qp50yKs4uXdzSv7doYJBlMqov7ZMoEwdRvYBdp02EDAzUurg7aZR4tDmAkR0mb7NsZw2OEUwd2PKuUmMyksX4gFpX+FSeBXsoaKYnKszOFMjDSE8S4a4IZGbcOmpMDnhjaZXbntf1sTsArlXY8XE7ECzjQheCWeW7zngm7l67Nd1inLZVX/Tqzhfmdp26/jTVi9h63Aj/fSCY0Gvj2wtoNTC3Ev/7U4t3Oaim4tcFwutamwBOhjRBXokNsq+5DA+TnRT6dnHVKA1MFpGaYZvjkzVauOxHvar9BTLqBOjZ9ITyUz98YNEVNq9GT8TAGEpPnDFXX78sUsR0oXIRyP3MKbS2qEBWh7fqR9oqL/2khl9fDMPNxuhgYDcxDOzW8G+5xVa8DV+itkOVzkEoSHr3HVK83ETLkLqtXaWci4s+0YxKJh5GhL+yauCfQ22jtYq3SSPRqqYudkURR+X5FUtaexGhO7Xy4sqv2qfN+5rqlRy7bCZkYMh8ObcjWoMTHvtCBX/MD7vRzpZuqCgMvnpvECPX4g50L737B7Um+7cDRDN4L1yzeNSuRld0YK1JnXO1tdcRiqipL6xchSwW1Ys5k098uzoz7fZRaaMCWsY89W0lqHW3R0yhPsi4zPvRvws8fYlcysFpCEQ4U+BZbLLywqo/iLyOkIGx6ArLyk794DZTjwhHcoi7Yne20LqDxUVOkQ3u/6gCJw/eLhy+aMLN59pykzimmdif+LODvk+qWPTF19UXV60j8lrCe4KV51d8BACUzJ62xok7CBKhd2cRhAfduip3dFGuccDDn6poSZTyd37boYfnF/l+O93fmTyAuIE5mkO9wFF1/o83ib6W8JNsUueUafI2E3KL3LFiD/Fm6kMJbmvf7pSo7fDYlyrYfNR/JBvo5r+/V8EXf1UTKvC7nekazSccP1t/2EA538xcfb2g9MjnrQZ36yDlKqhz/lpN6aoAcNo9UUaksKrwREFLhtd/1cDHq8m1lW0LzP2uEv5md4sIMYKAemQd+7OpL4+qr+5YQeb1pAyM7vqejVajqpD0VdVCdJmU2oVdJpFlxR4DzP5ShVX02jpZF0ww4c0yT7dRbyuG9yI2KRvNDjjggd6vKvv3pWReT+optpt1ztLj33xG+qpq2X2GuOW8b9jt272QKsdzLTB1QQX88m/r4l3+iLbGgWuJ5n6n9oqY2K1CSpygicpic2RdNLea/dwc+tJj+4yq8xfJvIe0m1B1ae0vAE5KJnDvWeIGZkqGFALEbFtZKnyzXgcPflwBp/LahgdgMDtg1b4auPeD8jalzewvzBxNTDMHsY/EM9gY9aW1pHPhSBsYm7FSoyvM2kb2fYjrKjuWNCRCgJiL08pZqJF9zQqPfl4Jn6/TYs/AXzlyyQxT36vAFfHlJDqCsrgID+LirhZE2XuO8qSjVZ1duorsmygFOvTFWZTlNMksk8aS0ARhcc+ynTVw17vl8PXf1ViVz1/YcMQVM3rim0qs8cNCDXdyns1x/LKZshqjruggpWeekoHR5G1ZS+V9gNsvEN9SHdxdjJXh/YGMJBF89GgwRIf6x/WQAd1US7brYcJb5XhnZv1hg0+atuUUWuGtZVUw8pVSeOs3DY4ZsXjGnenEDcxfHnSg0ORtIZRY1xhKBsaoOp9jNaqKqLy3tMqO9UmIcv8wchIFTDC8lxgr249IkcCPz4bilOy2StYFM7y9TAOZb5XhBLZqA/OW5lyBBR78pAJ3o9xw2Oh3DePIECDmYHlXfyA1Xui2p5Q70ISy7ST1LX/d9X07qLyP8pMSN/7nZUFxY++n8t5uHQXw6wthhF8/7vVSKGdQSqAlnp4kh4dHNQyi/blHDx+t9r0oNh3wuQB9ugihT2cR9IgVQkQwl/CORHNcKrTi6upjl81w+KKZUeV9b3FHNxG8cFdggwf6QLYJFm3RwTkP63qosuLlsCZa1M3xyzYdfPMPtd1Fm1l77cyPyR2pvJdy3b9BdW4fVQOTfdWKhZqJlvGP6SuB33YQzwSmAx4X4PM5Siwt2ZjOFCqO/RWbw9WHp64XD9TOjIueDSU1zvLdeli4SXdL1gqN7C2GD2c2FV+/o5sYH7O/VHl9uYd+I6LGBfCkSP350V3fu5fqeylns2nztlI+KdT2HibKPYMDCGnS0kV4EBcWPxfq1rgALjZs+8lsLYEeFvTQEA0I/rCpGj5ZU31LGpfMNIlb41KfV+8NBL6XQ3NTBxGPvew4ZfRITExfcnQ/1fdSfmyNqvMXAJyUa+fJGJhIJd9r5QMRwTxY9lJYi4LRG0hce1sFGZlnF1bixlwt8f2G6httb2812gVxCWkhoyVlfy9qGaEJcHQf4gZmw2HP7ldjxXkC/T7c45FfUHV5w99U31ttcMLKvcRvzOmDmQ/2TkiTwJrX27Uo5lSkssElP2nVyjTnCqzw2BcVbrVn7A6Ab/+php+23prGRSbhwHdPhTRoFVtQZsV6NK8tqWoSHCfaSZEO6suetgb67TzIfQEAp0ZfnHWW6rs9MzBXNqzx5P2L/9WDmWCVbO/OIhjblxkvBt1ML00LxNrB9ftPu+Pv28B7qQ8yMo98pmpiZN74VQ2Lt92axgXxwSPBEBtxM8ZxqdAKD32qwnlcW44bYU+jjFgyWrieEBbIbbWlcH2+/NuzzYiqXM+ecY8MjCZ3w0ZP3o/WhTtPEd86m3dXYItdGKmglHPhy8dDcJyHCDtJVIXfKhSq7FjgKq/Uivslz1+shq3Hb93v4b2HgiA9qeFk9vayqhsxJj4PcGvZ+ozqI4HjX7eH7+eGwEtTA2FYT1ezerr5vzsVrbYTrqO40obTAjyhKnfDVk/e7/FXYKg4d0wa1r0v1fcv310D4whm7KKlCzIEv+2kZ0epf1cRvPdgkNsl0a7TRtCbnA1Uwk5eMTfo9Nglig8KCRf39bHYnLhp262a7o4+17QFFb6+DMYZ3UcM49xkx/aMFWIlQcTzUxQQHux+GZ2WKMJHnZex87QRXvyJHrGs7h0FpDJ3yWgwNYe+KGuLJ+/32MCYtfmHPDEw2dessC/bBIMI1lPcO5Q+A5OWIHRrXLafNOJG44e+aN/g7zY7wAczgyE5RuC2Le3Tkxzw3A9q3A+ZpW0SKHXvHbxyTxDukIAmmHuGEK/0zy+lL153L4mlkd7oaNCEkApG9aUTNmOlR6X5Hm/+6kuOnvN0jE/XaAl314sI5sOssfRIOaw9aGgQW7DaABZurMbGJTGKD4JGtqdfgqv3cXM9r2USLrxyD/EOjCz+x6r9BnwPGMxNPdHHJyiabFlb7dDsvXvsshl+3UFPnKpLez5hTx9wRX01mCjKMtRh1uRf8GgAOgyMUXXeYwNzvcIOW44Tt7boh44I9jwxpkhlx21A6m6QZ75XwY9bXDcEmQrV+sRFCqBHp1snEe92BN0Dz36vbrUKvbjSBgPnFUP//yuGaQvKYcEKDTYqGr0dZ87SKVKOPGeioOtatc/zzQijKtvjZ9vjJZKxIvuQp2NArbBzZhpxC/3clEDsaXjK1XI7TH+/DHhczo1m8QiVllp6++KtOjjro9RxFvpAy9y73yvHD3Zz3TT3Z5tvTE51vdHXergscQdaGpEp31i6nR6vSVeURTnBrg6P8w+ddrNTFpXeW6SI6erJOGqdA1dOJxJo0Aa1nsK1Chvk0tA+VFvjbFKAd6nIBlV6O67VOXnFgrcnkdFpTlgZLbVeWVIFq0lUi7P4N2iJseGwEcqqbLjfkEjQMIWhW0chpHYRwp4zJrAwlBqFnokPHglucu7mKFTZ4M3f6NFnLtz31mz0fHsyBi0J+Jr8fz2KNNexfDc5y/vuA8E48MYUyM186js1vP27Blbvr8G5OO4oKLPibdx9HiU0sfgrfx8ywswvmuYCAe65LYLfXwpj7D783yPBIG8m8OyO33fS473oS49ttVs8b7xFy7dirDh3hI5xcopssJVELIbLdVU7M01qvBCWzw9zuzW5/5wJJ2DdqtvTLC7ySmw4puJOuD4qlA/fPBlC+zknp0uhRwslK40pq7LDpqP0dGEwlJ+jJfRBi4HRF2WdoGMcxHvLtTiZiyiT0wNwdiNTTMmQ4sri0MCmxmXlXj08+4P6lizyu1WZd5cCppEoFKxPXqkNZn1Z6bYros1B/z3w6Ghyu6Vv/FqFc7foQF+clU3HOLTVgCq7TpvCFwVGeDoO3vZzOCEjifguTkKUADYeobd/jkgAsODhYHhkVFMPSWdwwFu/VcGvXpaQYKFOn3ghzrId2E2Mj4pqO1y8Ti0Yv+W4EfQmB/YuhAIOjtXM+1ENlTr6vNjZ42QwrBfxXke7Thth6Xb67sfre16b47AZPU7Xpm3qN5SfpsWlQvyxqwauVxCPmqUlimDGUHqLIbt3FOKcl8agdfiDn1bANlb9vs0wc7QMKxHGhN3cNH393iDK49kdLq3jZxaq4Uy+BT5cpbmR5UsHkUoezB6nIPWez9bSJ4BmNarO2IyVtKQf02Zg9CVHj9M1FuKFn9RgITHBzLsrELrG0Jd/cjzXgnMa6nPhmgUe/7oSrpW3fYW224GIYB4sfDoEnprY9GH9K8vz2f50ngUXgv5DY/dJmYSDPS0OCa3JL/7SQrGavnuypuTYabrGos/AFGXtoWssRG6xDX7eStwqox/kvYeCICiAvnjMnK8qIfuqK+1/1b4aeOBjFVwpoW+mmjtJDj88EwJ338F2T6Cbx8fLYeN/w3H2dX1K1XZ49HMVvPuH1mfX1hKv3RvUwNNqjcMXzbSrPeqKDtL2LNOqXt17bmEhBzhRdI3H4wKsfzu82cIyd+w6Y4QXfqSnuAxqRZ7bK3lwmYZ8mzrQzPrFHGUDycM9Z0zw0Wot29HQQ4JlXCy9MbpP0+UtehhfW1p1I+dpaE8x3iCgI+uVDiakSbBkCBmmv19O66SHOP/HsGSTOsfjMgGgM8iL4EtCogPCU9LpGs/pBLzGzewfgLekiRAbLgC7w4mT4+jAanMlAdJF3y5C+GJOSBM1+E7hfJg6MAA3ImO3vKkRHsSF5S83VSOsNjjgw5Ua+Gydqz4HebkvTFXAs3cG4oCvw+H0eYFq785C3LmCDIs2V9MeC7QaVQXFBxe8Ttd4tO7v6ouyPNKHccfZAiv8SUL5DvHoGDkttUp089BIGfzwTGizHplIwGmiQ8JCHJsd3FbH/7hFh5PlEPHt+bDqtTCYknFzU+DBkTK8a+hLyBbJnr9mgR820S/4pSvM2kDneLQ+hZrcDTtsZm0lnWMCttQ6qCSRVIge1KUvhNEaj/EEtA59caoCnpnc+s5AXglbx0SVSp0DXvmlqUz0I6Nk0DmSj3ts/fRsaBMjVGNyAodMVJVmvpgTTLjDRh0frGQmhqQ6t3QZnePR/gQaK7JpDfYC1rZwwufryG3DhSp4OM3a1yAjt/r1dnCvGw0RnZumZ+eusloynvDvCRPuXFkfZFBWvtoOnr8rsEna/ek8M9z3YYXH0gZUmTVWBoO6E893QazeX4Nb/9CN1agq0xdlHaZzTNoNjCZ/yz90j4nYfMxISiQcavNj/jPcd50h0xKF8OsLoTi+Uh/kyv+wqRrfKPW5XmGD0io2/uIpn6zR4rT5lrDYXK+b+XnljaAvulc+mRXsNc83LUEIM0eTy3fJKbLC1/8w0/SvumAHrcsjYMLAaPO2Uu400BofrqqGfefIBbWemxIIj46hR6CKKEI+wOszAuH7uaFNxKnUOjs8+kUFbvXRuEBuOwl9YpbmQR7vByubryjeedoI498oxXKtiK4xAlg6LxTfK8N6SuDT2UratZ8b06ezED56VAlCEiuj0iobPPkNfRozjdHkbaXUf7olaDcwFl2hRld0cDvd49aBZh2yPJmpwAWL3iBEzoW1b7RrEESszyu/VN1oNZrcseHddfQSW41dBzK+seHUn/K958yw9oD7/JD5P9/cqp4+OACWvdhw5yklTkiqyJAs6LO99xC5KmnAPah0jPX1dgKYtPlbad+kYcROa/K2rJZHZYxkYuxClR2e+b4SvnqC3JbeJ7OUOMEqj0aN1MYkRPGxpGKksvmvddY4OZSoNXgrPSHq5k1stjrh8CXy8ZchPcRw37AAKFHbcVLgX1kGvLXeFsnsL4GxqRLolyBu0Cnx/DULbDlmhN93kUsoe3+FFnsnyR0aGovHxspg5V4D3qp2J/B9INsElxjq3ikRcuCrx5WkcrsQ6w7WwAaa6+3qo83b4lF7kuZgJHTOl4SE9Xz0TDkTY9cxe5wM5ownt36trLbDU99W0po0V5/Hx8tgFoEaEo3egVuA9Im/mWV67LIZZw6T5dV7AuHugTe9pdX7a+B/f/pnlmpzdO8kgAUPBUN0M1rHdeQWW3GpBplZPL49H/58pR2h1zqdAC8vVsN2hlrTSEUc+G5uCGnviOq9QYa8LXOmajzsgeQORjrqOmxGgywqvZNIEZPCxPhQWyvUo5OAVFq1VMSF1AQhbD9pAiMDuwbHLltAIgLoFecyHDUmB3z5VzXOBo4IvnmdYiGniZez+ZgRjuaQ92CenKiAEMXNnzEmlA9LGkkmyiQcGNxDjDOj6UwapANkABbODYUwN3IYjVHKeRAk48Ces8SXkujzXi23wYiUlndqrlfYcEX0wQvMLFM5uN9SMOk8JzQpPvlNJSP3ax1Op1N9ffeLjzjt9O9gMtay26S5ci00+b45TI0PtQ/lwG4iaBdE/GMEy3gwpo8EC/MwsTV5+KIF9meb8FLsw1VavOz555ARtDX2FoXEf/lXD9dV5MoEkLv94tSGCVoiAQcXZV6ruDnW/OmB8PSkQJg6KAD3lSqutDG6VCQD8sASYxrO6Oj6Dl0yg1jAAUW9OMWlQisOzBaS/J6ulNigQxivQWlGfdDya/ZXlYyWaXwwM9htdX5L6I0OmPFhBaiqmZ0Uyk8v+libv20XE2MzFis3lJ44qSs6uEselTGMqXMg3v1DA0vmhbXa8rU+aP379RMh8PjXKtoEeupz/poVH/X5c68BLhXacMJd15imLjJ6eMiSluDe1Z6ULoV92Tdn4p71XPIgGRcbGirLACEfsEZJx3Z8iAnjgUrrgM3HDJSlCuIi+E00T7YeN8A7v2vAXPt11AXnS9R2sNqdOPVAKeeS9sS+3aCDjGQxBNbbgtbUOOCT1Vo8UTHJW/cHkTYugCUYtIyXjdjM2qqy499+ydT4jG74lxz57B0mx0dcLrbhdhFkSeogwKX8TGr6NuZUngXu/0gFaxrlv2hq7JTEivo3424P7yWBUIXrc4UHcbFAen32nqUWY3jlnkB4/+FgmDNeDuP7SXGK/Y/PhkLPWGp59pPTGwZYK7R2eHXJTeMCtTlDvTsL4f1HgmHLexG4GPD7ueTlKZGBQksg5BUgtp00wpT/lnnFuEwaQL5a/q+DNTfKG5ik/PRPX9iMlU3Tn2mC0adLX5S1p6b02G9MngOBljvzF5P/jpI6CBkVbG6Oxi4v1azMzpHNO6BDe7qMzwg3M+fRHGpxhuFuFNZkEi7pCuA6Gu+kXC1v6An975EgWPx8KDyRqWgQGI1vL8BtVMly8ooF5n5XiQP9Ly+ugmoDc3ENTu2yiIpxQcbv3eXMB+qd4CxSnV36EZPnYPzJurJx5jzkhjF9nu0nTZQyHNFNjmbE9iGMhaNaZddp8h4FlwOQEue+ywEiI9n1b2NTGxqFErWN0i5a3y5CbEzcERPGh35dyOeNFKkaXkd4o1hagLj527NvQvOfvSXOFljh0EVm842kIg4uU6GyLNpzxoiNnzfI3/L4MzZjJaPSjIwbGJuxsqL81E8LmD4PYsk2Pfx7nLxb2SVKACtfCcNShd5g24mG13itnPwDjzwUfguXO6SHBO8adevY8ME/R9FbmpzR8kw80o3+Smvsz254byNDpZTfvCUPt2AIUikYNG8g5AN8+1QIjPp/9s4FLMoy7eP3HJmjMJzkrCCouSQEZh+a4Ymw0CuzLVetNQ+1V+vqbvbVrl9lhy07Sttht1oy081apLQMj0hqIigrKqDIYUQEhuPMAHM+Mt/1PjDrMIAyL/MegPd3XVxZXcN9jzD3+9zP89z/P46/D6yNe2WPdzyNbodWUfhDpzx3H9FxSPlEGZVXyn2j0xbxhIGhRMfKv2SCqGAOxA1ikDYYPC4L/VJcrbeiHzSRdOq7oaTGDOPEbFBq7PBDoQH0HvpbPbFQDFMjbn7IKhusoDF2o1MyJ9iH1f2S2RdHtLgEit5cLQMu5+ZGepPK1ucmKra6yT7l2UW4lo5ueGyOCIQ+N7+PwdQNF+Q9x6XtXd3IiO9MhRksNkefo/3WTjsyRaMTWKv9jw0BcGe058WvpsmKLoJ26UkZutTXHlq73GZoVxIdiJTNB7tFo5MfWPUQ9sbIiLft31245nqCfDnIosR985EISuQW2PxPNbpA1dbl+QbvAzP6jiKcqzLD126mW64X8Jwcu+D5inhqBLefs+AnP/VtR6OCuDApxPNDSeyD5YrriEVLhx39/by9twu3AwBZJMT07Oe5i10NhdYOO/LCJmoMwJ2Gglc3GJUVlWTEIm1306prbmw4vfWPZMQymB3wlx0dHpm4ubJ1pR9u7xwySIzm9RvGK6k2Q8FtnCVLavDtPbjf36lWWOFoiQmuuWnXLL1NGzUQJ8v65jRexkGjD67cEcmDDDff8haCV5mekBjDhw9/5/n1f4wahRWeeK8drcjIoLP2yO72S1m7SAlGVovkxNB68SJfGhEpCopPIiPeiVITTAzmwCQP2yWMe38lQKc0ZyvNhPkO4+WxVAn6pXZitQO8/k0narMmh3MhOmTg9/v9GQM6KveUFx717XNbOOuIFt3zUXbZ4f7kmx/88ECOxwLUTSo7LE8V92m/Zt0hgIjAnotxD88WwZ8f9eu3gnoruxNaaSAtui5dAi+t8LvlhvRgYMXl6Y+U0ElOWwSG9ssXaw+te8RhN5O2HCRd8u1G/ub1Zp2CEM0Yd7odAC/t7kTj+XhYeJcQvnw2EIL96KGM5yTJbTL8ZJkRefVg3OqEpPy658XFX8pGxnauOEWyT5SZ+4hm+Us5aGDRE7C2wF0gCpAAtgjdtxloGBFrBcvqqG+Z3lkrQ5P6nlzydIK1RRv+riL0qNwVBzgU8gMr0+0WDakK55R8cqqyH1iuVRT+QEYs7IP3/BcdyPkOD5NCeai3zpjp+akAUbgPy51xOY0puDJwgTFZHMjHx1OWDFAwnsmQwtMP9Hy5s2qe59o7Hx/QQMkAns8D8VWe1mN1Q2+TEM2Dr58PRA8gPNQ2W2FNZrtXnSBvhVnTUFGz79E5NqOqnZSALlBy+aPbZrSpK3OypVGpd/MlYZPJiHnsggliQrkea59iCH3Y6Eo79vp8Gjg6TongwsTxN9/Hy7s7UZuEoTM5IHESr99k8okyE64N3ldW9Vd4S4r1gRlxPV/urQvWSp2+bPRofgZrQX86ZwRb7yjAQFy5YYH1f1MSNuk8VNKTBfDRM0MbzhwIbOWyJlNJ+HyRE4fD0VqxZ849po5qBSkB3aDudhnSoMjb6+M3cYJAFkfY1LUrxy+a0IBgQgy+OxRYcbo33geKq7HWgDrDe6xQYE/y2hYb/HjWALVux85sFsDc6X2frp/maqCu1bONxAnBHI8lMaB3tVSEYyr54jUL7P1Fj6xq6lptUFJjQftoH/+ogR1HdaAlSMltKEiELLTX8kyG538fTk5fNsHGT9XomgIZGNovX6o79vtUk7qmlZSAA0CdlLoL0Ys++1oWu2QVWfHSkgTw9hp/3K/v1HXD6992wKky+irQ5b8VggYbnSRvbPL4e6ycK4bnHvHMTgN6pR0zthIqB0QqwX5sNBwbi+OwwEneRSNs+bIDyCqRFl3T1crsRalUtEWuULqCcdIpz91nM2sUvhPmLSaj6GFP/CaVrd8k71AR8FmQnixCJx0lcjOQtyc/dEprzWhyuEvvgPo2KxzEoYb2ZJqkTyt2tcEKL37VgTZlXb9+uWzq46QoEbJRfIWKPkfJeFmTJoHtTwfgbomg1wd7625ybuhiqK5m77h++HcZNpPK+8ZJHkKLFYwTSXjKjOj0z3bxRIHTyIg3PZoH2570H9aIALaa2XtaD18e1f53H2Q0IPJhwcl3Q9G4AfRONW/8hxKKBxHFemO1X58TH+yJTdZMDRGkJwuRtGbMIEf+Q8Fo7obt+zSwv5CcgxsHgKrx9Nbn2kt3kHbP5XbQqsA4iXs4Z480fNZKMmJxOT2zIzPi8A3POWntsMNfdqqh7DoNlzM4kEnYkL0lCG3anqkwodvRtxJk8hOzYYaLPs3ZSjNh6vdEEiBlI2mI4f4+qLV2eOI9JWle40Z1VYn8wKqlVl1zIykBhwgtCwxG0J2rV4T+z5/f4/r4es1MfzCwp/XqhRJYv6j/saun7MzTwpdHdeg2McPIYmmKCP60dJzHav/unK8xw8u7OnCNgHiOQ9dWvuuD5qJ3ttstGtqJMdO2wECvePjU5Yd/5EvCvWaofyuWzhLByyv8hv19lF12eDenC/JxyDAwkE/0eC68/lu/foOheDhYbICt/yJnv8UBDkXN/kdX6BRFp0kJiANabPIORrfNaGi7lLXDZta0ikOSktlcwfCXGLegssEK56pM6LTAE51fd0QCNprMTozhownn+rZRtDkziogN5cLvl0jh/5bLIATHHJEr2EMlc78GPj2o9Vp+t0Dfdikrs/bgmlUmdXU1GQHxQusVjCvYaiYm48vtkpAZT5AR7/31MtynTO6U11ng9T2dtBHaHuvIJGxYe78EVuK4dTwQdS02WP+hkpRpaIuu6Wpd3sZf6xRnKwgP5gVGTIFx4hudnhE1793tPFHgFKJj/XahBNamSYbdkzv56awBdufrmEJDEVhheXSOCFbO9d7P9MBZA2zf10X4hrYDQNVcvD2zpThzG6GBvMyIKzBOghLWPR4yY9MbPGHgBCLjjJex4dmlvrgUygbjP9VmZJB2nAZjB2OBSaFceHy+BJc+7mDUNFnhrX93Qinxp4b61tKs91vPf7zdZlSR0n95kxFbYJxEpr65LejOJ7cQHWdhogDdmeF4cdeqvs0Gu4/rYH8RqQOuY4b4CTzY+NC4YR85u7PnhA4y9xE/cKlVFP5Ql7dpg1XX7Pk1bJow4gsM9FzQmxM6c/NmafispUTG8Zey0STxstkDG9vjpVltg8P/MSJ3hOutTPs0HPzEbJifKIDH5ogHNVrDS0mNGbVDVY3E/oysRlWl4sxf31RX5nxNaCASGBUFxolf7OKHohd99ncWsAi9OzM/QYBU77zVx7tSVmtBgk5EWZiOVuLCuPCbuWJYmuLd4u/kn4e18Pkh4juUtvKdWxpPvfQ24YFIYlQVGOg5bRKFJG98OTjxqReI1LvBnpSPLxDDmjRiTs6bVDb4udSExLJKa0fH7WBvExXEQZ7b9ycJ+7kneIuCKyb4234N4StLraIwt+HUi38wqatvEBqIZEZdgXEiCkmKmjD//Ryh/5SZRMaJDOLAO2v9kfo9UTS029BpxY9FBtJEiugKmwXw4EwhPDJbDNNxqPcPFbXWDm9ld6EiTyRWo7Kt4eSLj3dey80jNBBFjNoCg8HxGccOSli/JejO1Zt4wsBgImMtmiGE36SK+6nNeZuy6xa4UGOGokozOu721KN5pMHj9nhrYwU85Q4fZCPranPibbCV4/cFBvjujJ7wo2fV1b1ZzcXbX7BoG8kbtSaZUV1gnHCF/ryQ5E3bghOf+l+iY90X74NEiSYTuKJxRd5kRT5CFfUWJKcgx+HaSCcCpGyYHtNTUJJj+Ug9jwxUGjt8e0oPO48Rr3CgVRTmNZx8cbWpo7qZ8GAUMyYKjBNxSNJdMRk7D/GEgSFEx1qYKIDNy3xxWVkMB4O5GxmVXZRb4ILcjMsmlkyCfNmQHOcDqfECiJ/Ig7AAz72VhkN3N8DnhzTwxVEypFMclsaC1/7YdinrMxKC0YIxVWAw+NIIv/DZL70ni12ynox4GXcLYXWaBJcWsDdwOHraKqXGjlY3LWobEoLCvsiSEhALWDA1gtfzz0g+BPqyYUIwF/kd4bH78AZqrR2yf9HDd6cNpEhYGlVVBXV5f9hgVFaUER6MRoy5AuMk5O7NT4fd89znZMWbPc0H+Qu5i3FTjc7YjTSG7d0AVpsDtVta480PnMXWM8jXoetGWrvQq6Ejk7CRVgxWNJzwOCy08Srr9ZeeFsmDcJq9X72pG7KO6OBf+eSJvWkVZ76q2f/YGtIC0ogxW2AwfGPSZ0fNe+97njBgPFkxsaf28vvE8OBM0X/V4hiI51ylGfYV6uFkmQmp85GEvan4/Y0txR98SlpEmjGmCwwGTxwqiX1oT67Qf0oqmXEFfBY8MV8MK+ZKkHYuAzHsL9TDV3k6aFSSK5lhNSrbag+uuU/fcqGK1MA0Y8wXGAwOf5xv1Lx3/yqLW7KRivgLEgWw5B4RzIkXUBF+1CFvssI3J/RwosxImnOiK737LU+RZTBPZ5gC40JQwrq1kXNe30FVfCGfBfMSBMgXO+UOHxhHwCjCaKS7u0em8udSIzpBa6LQzUB1NfsrReEba21GNaOZyhSY/ohDku6OydiZS/TFvNvB4wCkThcgp8Nls8TAYn5S/SiuMsMPRQY0hEiWU+KtaCx4dWPbpaxPqM6DTjC/tgMgDJw2Pe7h737i+vhGUZ0LhoDHgplT+HDPVB90SuMN7diRSJPKBheuWaCk2oyGQelQVHrR1x3/0zp1ZU421YnQDabADIJANjl02qqfLwOw8FtAEoREyEItVNpdQliQSB9TfiIorbXA4fMGZEVL9kbtUKk/tSVNWb77ONV50BGmwNwCgX9c8MS0T46KguJJ8c7GA5sFyGt7UigXjSfEhfEIHQIkktpmK5parrhhRTrGVY1WZOZPV2zmrs76E88v65QfPEF1LnSFKTC3occ65UghXxIWS3UunhAbxoWpkTy0YRwVxCV02hsPrR12KKuzQMUNC1TUW+F8zcCOkXTFAaCv2f/rB+hsGUIHmAIzRCYsyNwZcMfyJ6nOYziwWD0X/YR8FlJ7GydiI9M57M/c3pGpUH8OhOOcB1Jr7dDQbgervWfVUddiQ/IS2L9fuWEBmw3gSr2Fll7enmBov3xRfmBlOtXG8iMBpsB4QMjMzZvDZm5+B4BFr/vvJIEVJg4HRqQlrLfQKgq/rT247mm7RUO5sfxIgNbGa3RDpygqshpVJb4TF6yiOhcqsNl7ZpPGKh3yA9uu5a7e4LCbR1Y/RyFMgfEQQ1tpjVnTcN03ZtEDLIAxuZIZi6iuZn9Sl7eJcD2h0QbTIuFEND4petLinQU8YWAY1bkwEIcDwNRY8Orq9ktZe6nOZSTCFJhhwJdGBE5avHu/MGDKvVTnwuB9rEZlW/3Pzz/Ydf1YCdW5jFSYAuMF4pbmZEsjZj1GdR4M3sNqVF2qzE5fYtU1N1Kdy0iG2YPxAurKnO8cAHph4K9msrkCZiR6hNMh/+kL+Y8rVjLH0MOHWcF4EWHgtCkTFnzwtSgofgbVuTB4js3c1X7j+LOPd10/eozqXEYLzArGi9gM7arO2kNf8KWRMmHAlHuozodh6Fh0TeeufrvgXmN7eTnVuYwmmBUMQfhGp8+Pmv/uRzxh4K+ozoVhcKxGZVt7+a5tLcWZH1Kdy2iEKTAEE3nfm1uDpj/5GtV5MPRHqyj8vi5v01NWXXMH1bmMVpgCQwIC/8nTIlPffEUazpw00QGzpuGsovCNzE55bg7VuYx2mAJDIpLwlLvDUra8LQlJnk91LmMRi66puqXkk9eU5bu+oTqXsQJTYChAEp6SIItd/JRs8sPLuD6+oVTnM7pxGDrkuQe76vJ3qStzDlKdzViDKTAUIwlPSfGLTl/kG7Nomc+4yHgKUrAa1VXFNqMKiSjYzZpKo/JKi8v/bweAVq2iSOn6IlHgNAnHxzcMAIKhdyaLL42U8MdFJAAAEp+RhqckALBkJL8fsJm7Grpqj+Z23cg/rK3/Jd9u0RjIzoGhB6bA0AieOJQnDk1eIotdPI8rDIiWhs/KGO73tOiazuhbSpqwP9uMqvNaRdF17D+b1NWnTOrqTq8kfhu4Qn+eJHzWXADwE/pP9hP4T07F6pE4JEnCl4Rj7eKwHO6N6qpzJnV1rU5RlKtvv3zS0Pt+GaiHKTA0h+MjZQkD4u8CFkiH+BKdzai6YlJXmwhOzatwhQFsgf/kOAAIGeJLbBZNw3mLttFMcGoMDAwMDHSEcfZiYGAgDKbAMDAwEAZTYBgYGAjj/wMAAP//k0La6A8wq4wAAAAASUVORK5CYII=;" vertex="1" parent="TjWUEsn5IVO1DjWOrf8H-10">
          <mxGeometry x="30" y="15" width="110" height="110" as="geometry" />
        </mxCell>
        <mxCell id="TjWUEsn5IVO1DjWOrf8H-8" value="" style="shape=image;verticalLabelPosition=bottom;labelBackgroundColor=default;verticalAlign=top;aspect=fixed;imageAspect=0;image=data:image/png,iVBORw0KGgoAAAANSUhEUgAAAG4AAAB1CAMAAACYlCSRAAADAFBMVEVHcEwXTncoW4ErXoMoW4EeU3soW4EoW4EoW4EoW4ErXYMrXYMnWoElWYApXIIjV34hVn0fVHwoW4EZT3goW4EoW4EoW4EoW4EoW4EoW4EoW4EoW4EoW4EbUXooW4EoW4EoW4EoW4EoW4EoW4EoW4EoW4EoW4EoW4EoW4EoW4EoW4EoW4EoW4EoW4EoW4EqXYIoW4EoW4EoW4EoW4EoW4EoW4EoW4EoW4EoW4EoW4EoW4EoW4EoW4EoW4EoW4EoW4EoW4EoW4EoW4EoW4EoW4EoW4EoW4EoW4EoW4EoW4EoW4EoW4EiV37//////v4iWH/5+voiVnxZc4ZnfY39/f0oW4EhVXsiV39LaX4qXYL9/f7y8vIgUnb8/P3+/v4sXoOWr8JVfZwpXIIrXYMiVn0aUHkYT3ggUHT+//8qXIJ3iZYhVHmZpKz9/f4nU3MiUXMdU3scUnolUnJ0h5QiUXQgU3i5v8T++vz7+/zEyMsgVXwuVnOosbc0WnaIl6HHy81NeJc2XHdAYnolUnPx9Pfj5OXg4eKrtLpkeooiUnUvYIUkWH/u8vUzZIhDcJF3ipfU1tglWYA6aYx6mrErVHKXo6vq6uptkKr09/m+ztm6y9e2yNRjiKSDobe6wMORm6OYpKz3+PlojKbn7fFcg6AzWHNEYng9XnbV3+cvVnLb4+ogV36Pqr6gt8hec4NHc5PLz9Cmu8t3l69Se5pofo5YcoX39fUnUnJZcIE3WnOhqa5UbH61u7+UrcCHkptzlK3f5+xQan3r7/OswM83Zoo7ao0sVHLj6u+dtMaJpbvJzdA/bY9neojK1+Caoqn19fVid4cpU3JxhJKkrLKDkJq0xtPd5evi3d7D0dwiVHn++fmMp7yvtblMZnlYf519i5VrfosjUnSVn6bM2OGAnrRxgY15h5LH1N9hhqLz8vWor7TExsiVrsHP2+NWcIOxxNJXcYXT1NXf5uycpauGo7hJdJW/xMiDkp3Y2typvc3p5OT28PDv6uqIpLmOmaD//f3ipFuKAAAATHRSTlMA/Vn9Af2pAwQC/P79/fz9/f0O/vH1FKSXhgll2/0dKTsk6QZA0siv4fkaX7Rt7f58/J0tjEy6vwVG5dcyNcV2cVHNW5NWSYDWiVjMc16e3AAACqxJREFUaN7smglUE/kdx8cmMRAgEMINEUVQEFHj7Xqfu27n30DNJCRLgmYyQIoPiQh1WXVhEREFWgSKgOKxoOJTrFrrrRVv1NVVdz3W+3aPat3d3rb9/8M1OUnI0D5f/T0e8+ZgPvP/Hf8Z/r8vhr01I3PluhiM68rufpYLneHC7VYY1xX+GjAmZmZAwPCJk0NdMIzt0m1DdIWwPkP6+eoUZGIiSer4IQHhLtC33QJjc9lY7/5ROpLwEomEPYQiQSk5mIiIHt0yZub92KcnoRjsJdTtWFP2w+tHlbuLRSJ3NyJihuFJmIVxMe9AXx1LoM8586UUtFjTFxs1lJgkBoZCj7KZTH2MPTVSw/Ki7lQthBy1VKWSKgFIAV+W4SKeLmq4N3MhZEM/jp9AuLknlbyQArVK3To4SFWngC3P9F4szTvRrgyFEN5lwFCxgk+t2LYaKNsc2Wpov6YkycON6NebiRBCH/WdNEjDEmRXnobDAWamVIIN366g+Ap3/17OehQ974z3CJYHlXMdpEjVwJLBw6crtRyexmdiEMopZ4IWOpAgxcITO1VAaRnWEkNwYTflySJCJmNdDiH8O+/hUTqevnRtkUU/0oBKoDq+Sih2I0YO61pRwDC4Br+Dkv/ZFghLAbYNhrDodamer4ua5ud4CA0zVj+U/DuqDdHp1FBkt25ERREW7OKgR+HVvfwJlPyzN6AHt8ugR0HVjiSPRGJKuCNFAbMraIiPhsfRHv1DJ0Ez8+jqM8VCPkn07GOvR9Flk0MIlic154Ih6RwxePmnu1bCovB9166iQMk/bCThJhauOq4GDsJai+K7O3pYFJHTOy8KODS/aVE6vp74YandQTMLofr4SQoWxahxnXgUJX8YTP70jVvtSH4bIVy6TaHnK8QBfpiNlHHBQifAGStpRxXogh+NQ/hqY7oAFsX7Vh3K5mLRvhoeVXwmtot+pIcQgOs5SR4sImA05mrFk0NgPqbv+tSh5Lfh0djtKzg8YqS3RR4XCyR4guIqJ4Jm4lElOH0niUdM8MbYFmgxBC+95BVQqQFDlqICv9xF8YiBbDbbjBYuduPkPAcqwKBBj66FvEDMpB7YmPdYhdfJJmAStYUfL/mFRVvy5w12FmElxSLCTXgocGLioenYYteVZ8osWurev1y0iwdu5ggUU/oahQ9+svqQ1DYzT2Z9LsGtmGT+IvsSBjwsFRPBRsPjYjM1XiVLgUlKqi/LcKumvbTQTl4ZRUZwacODkYskqe2mgQOxP8dtWPwH9lU82JroToyhDY+LjdB4nmgC6u7AASXYKCKHGuECSNEus8ExhJOC6nRFSBA9WX6q0Nd0F04Nik6s5A9rn8rYmJ8PoXll5ss2nNzwQ9/IHcHB+87hKKbC901bGYzT4CeXWsHJ72+Kj2/Q4qn74+M3p+L4qfj4TXnyFpz0UMVcuq2f+/VfpRaCd1REDmnHcbEZOsGPSpBiESep/9PF31+WyZMPXLx4a55Ee+kfH1zbLGnBxe5LMLHk/Vek5sF7LSQD2nEu2GSdYLc5rRW3eBkAv4I4WNZZ9yVxs9TgN5+04cyCK5c0fGx6GxU43CPRn4Z7X8GZY+7LNty12JsZEHdFqjq0QBK3/Gbs363jcDz1qjludo/EnjTcT2zh8o69fFkPY7d5z55NmTje8MeXx9Js4OJ+p3YGZ6sQLOJmSf+7OPUbhZNAM97I6Tjj007jCutzc9NwXHYqN/cj+EJKW5y7uJCGu9GQm1seh2vLc3PrbziPk9R/k7/sHiyEB/n5B2CZN15b9tvNHZkpmX8rP/9Igjz1SX5+bbnEeZztMpekwbKeC3FLAPj1R92A+xn4Z3fi9p7PyNisxTOPZWTsS5Dj+y9n3Cun4e43ZmTcTsVlmzIyLuVJGMhM+OGlRTkgk8Whb5TW3fbMzG45Dk9nv4l19z8tc3lrOXdXmd/IS0uDdR0HN3kwSIVpaWk3aDgZPH5fi2vvw9NMlHnDreaPG7PlyVebm9ctkGgPfth8aD+9zL9vbn4CC+Fec/OVz9/8Mu9mXPnViorbcfKE8+vXPy6Uazc9qFjSQMPlPVlf0ZiJyw5WrL+7l4Eyj4MfWPCDD89MSMiE9Z0Kd7NpqaKF+5l4y3Ht2zLvDCdv+UiXd2yNcG37rVtncbLk5ORMFKPkZBScTLgro+Hi4H4C3IWnk7MZKPNTDwoWHYyTJz8uKLhbKNHeXlTwfT29zI8UFJzPxFMbCwr+tfdtmXc2Zx7IytoHnXm3tvYInDOPHcr62siZ62prH2fKU8/XZn3GwJyJp86bNw/mgnYB3MI3QgLcpNLfCHB/AUyhQriVMfS+k9t+38lpx//vZ5XpCuv/vTKBM/rvlYuN0AlyLCwZMIb7Spg4lIbrrcHPrbayFOA8TgrKRGQgbaGjl2/pitNW11Va067NHMapQR1HEdyOY2N9Q3TZ14HSOq5wfrstcBSXAlafwzW9OxbFuFhPUnjWxiKV9uA3H7ZZY7aDOCW4gGvCaOvfLliwzmtHrFnwOnC01YQMmYM4KVgrIgfSVvdh8HwU6dXW1zOdwalB0SpPTTR9uRZ6U8Gps76e6QxOBc5QZJgffX2Ri4UTg9NrzFa+98S1mIx2i8upWsMxLcK1XUAzmfG6iho0wcHNNF5qd8X66zzPPTcZ38J1y2cZbPlnHScOtB07sqHjAprRrzVEbhccXC/jRokrNsyX1K8BarVp889g9HaX0bG2HZoZt8ZUYLueR0wy7VtwsUkEL6nMRjO+i22ZmmyxZqR5E8gV8yd4VNm/gZQ5mlIKvpB4aCJ7mfe42FjQKDi+Z89RZ4oRQ225w3qxzmc8ZqEl6op5Q55+VY2TnUl6276O4msG9cYsNmBdsSB/guWpX7OVgRYe6r+eJdJ5xNhQjGtVmBXjq+PpiUdFhha/E35UAuXfTiaJ3Qh/b4xrvWmO9Rlo6JnvlDqRo6gWHs4xCEpGGMRl1jvZbGzEWKQI2P3UYUUAXS5zFEdymSFBWCfSByT2mThIw+JkO6h3oOseZq8Q8hWEfWIgg5TJXcGnyMOrHW5oo5BXOyZ1QlchoZY4qaTGMdkDSv4tawxCrmCu/ZoVpMSJjiRYXlTdFgeKAiZX0dpSPZKpOajIaRXZ8TgrHzXZGUKkN9p5AkkruiLCQxLC/gQppoq3L7QjhMgHT3NQ8o8dgWFdEDehEI6JMGjEqqxqxOiaikqtgKcZNLFvV6Vb0P2jY8I0LEF65SubHkXJvy2R4ivEQwc4o4SDz+kXIFbwRYlfWVfLwAdRvyhJcncjJox3UueH/nrcKDSvnXuhtjivGZK/joLJHzmVARUj8s30SDSv1X1nYV6DB5oereTwdL6B3s4I/Ix1XO/6Ih1XGZKyKI3n4tjtxUIxSfTvw5wgFKnUehpUat8uBSkpSHqqlEqR0kRZ/SPlwSIixjCqr0X3Cp9CuHlQq85u7fBn086cdKSyi2FcPQw9xQ0O07h5Cok5a3dWP71QdXzbmmJKMFiH5FLdoI1GRRE4SONGCIRUOofDEQlFpaQuqv8w5nXK7R71i+kXpSNJhU6ngL8HhwwPNejmusfYyGd9oqeNjAiJfG+U/6T/zFaZgTqJH6eF0BXzsMji4GSgMeDkgNjBwsHBTvsNCVBfstDLJooAAMZY3p75uZfoAAAAAElFTkSuQmCC;" vertex="1" parent="TjWUEsn5IVO1DjWOrf8H-10">
          <mxGeometry x="160" y="11.5" width="110" height="117" as="geometry" />
        </mxCell>
        <mxCell id="TjWUEsn5IVO1DjWOrf8H-5" value="" style="shape=image;verticalLabelPosition=bottom;labelBackgroundColor=default;verticalAlign=top;aspect=fixed;imageAspect=0;image=data:image/png,iVBORw0KGgoAAAANSUhEUgAAAfQAAAEqCAYAAADj4qLVAAAQbHpUWHRSYXcgcHJvZmlsZSB0eXBlIGV4aWYAAHjatZppety4EYb/4xQ5AvYCjoOl8Dy5QY6ft8CWLMnyjGcmkaxmi02CQC3fAtnpf/593L/4yjl7l4u02mv1fOWeexy8af75Gvc1+Hxf79fJr3fh83nHjc/byDFxTM8HrT7H8Hb+dcPbMdh95cNAbb0+mJ8/6Pk5xvZloNeDks0o8ma/BuqvgVJ8PgivAcazLF97k49LmPoasL3OtOfH2UuSO/b7IF9/z0L0duFkilFTSJ7XlPIzgWQ/yaXBm85rTIULQ8q8L6neVxsu3yz4j7M92b8H6m3Z7mMAvaXsuwylz+ffE/QWNmbl7tQGMwn3Nd1Z2XzynRvnLfIMqv7TYB+GumXgPp34pj76W019KQ95m1V6zv8YqL4fP6f7rZ7K92Vwc/1xRs2/F2b8OKMd/fkYj7d02885u5275kCLjFxJbn0t6m2J9x0XTgKT7m2Vb+Gn8F7ud+e70UaLbG7nl598r9BDpEBOyGGHEU7Qe1xhMcUcNQrHGFdM91xLEntc6SkYvl04UaijnRr5W0+hpfg+l3Cf2+/jVmg0xA5cGQODBe54/3Yff/kn3z8NdI41XwgWzP70E/OKVuNMwzJnr1xFQsJ5xZSMuhvi8B7oj1+W2EQGyw1zY4HDz2eIWcKP2kqWZ8eh8J390z9B9msAQsSzC5OhunPwNaQSavASo4RAHBv5Gcw8phxncCuEUuJmljGnVElOi/Zs7pFwr40lPqdBTxJhDS2khkYnWTkXykdyc9TQKKnkUkotUlrpZdRUcy21VqkGw0OSZClSRaRJl9FSy6202qS11tvosScHTJdeu/TWex+Dhw5GHtw9uGKMGWeaeZZZp8w2+xyL8ll5lVWXrLb6Gjvu5DaIteuW3XbfQ4NSSpq1aFXRpl3HodROOvmUU4+cdvoZ71l7ZfVz1r5m7o+zFl5ZizdRyfEi71njtMjbEMHgpFjOyFjMgYyLZYCCjpYz30LO0TI36RrnO4ALyjLLYsnZwTJGBrOGWE54z92PzH2bN5fb38pb/Jo5Z6n7X2TOWeq+ZO7nvH2TtW28t27Gbhe6G1SfaD8uGrHxD3b860c31tqFlKZRKqsee7StIFmZqkPiWkIalqZ9Bq3C/EvjTQlFepq0mbaxOh3mVt6A7ZyzSz5zI0dy0bwq6a7htKAj7VXqLL4TshHIQehxrrI3HZ35t8Yzo7+5lJ+X9vWDXCulwJqspFPMPS3TSWWMI1N2nUPKTGVtLSujL+IkU3sSbPKisgd5pfyI1preEHxP7TnUQ+6GUBZn73jzZaClYcnc0osS1M3yh9OyQz/FE6Ne5mklHyRNQvVoi9P3TUx2qDYWYV3aSzh0ilIQy/PKrGCekV1PsmdtJegq2qqOHE4K9lwqmaXko8x+UVxRq5CTrRQlU6EBFi97N/JztqsUcpy9FohqL4pt5RrH2DRDn4dUghWLrM9FgS/oIYO1gV+M8zwPCuNkytCprBKIT/W9slxacuWcWgA3kko4tjAGPER5aSUnCcgWyXGE1seETtUvasxNppXHmqXYvz7D7E1pxBvUGMgEUSje2scS12fKVDAxz8KkJAEspDZE53Uyll+Et2nLlt+d50r9hKQ7Eljr1ciUZ+rqs85DpqbOvYWV7zip0mJQG7RBQTYwHV9k737mTbJnbNZCf8eY0QGrh0lokrdo9QUNWYCkWH204KzIi8nDf3i0gUhl0XROmPusNPoi5NoBoTKXeA2VTKcmtYKlSBoEuW4lC6kDcHMyRRLtYgDjJFFqBlWiyZbNcJDHnKBORZFqBBDSAhQPRx62eWSn6ubqAnAgYbbjqaif1VPeChBU0TKlzQb4SVu3MNuxELdKuZ2YQXowNemogAAJBp9j0upmKN0yC6htwtdu+9ILFP/z1lzEp2Ot1BP8RxUw9Yk0ZOzjJtJNC41XTre00KRLgNcUwBuhwm3dlIxNasZQK7dtqiutTm+2yod7V21OqHBlUNxWtk5F/JVB3a6RuGOzxBUHOi1JQXkafQDh6NN4mib05Cywwo7VHa2VDik0Nwmk6NbMlE5jthJwPAtkAXKEuoUroS14aUeFFC1b2Yr0loArNPDfr54CmkjbVLvLknZJhwfKAadJ9pZ1tqZqGetMrBR7N3Qfi1qiADRk6Uz31n9NRG/gjnycIishh0FRMKrAch7UIBWYogF68vGB4dB4ZxHBRvl2uAVEhQAnsyAIyZGrYWAaCryeuVA8TZfgjYXY280uRz9sezpTymrrOLB4+nzevX8A/hWCCvkTet05UscMdxAJs3dvYLcmBFHJvA8QucFo97A4kBI6Qos3Hlhn5FVHnzQVKKmjl0LOamb6ywoHPYE48qPpsWtBdKl3PgKYQZC/+oi1fnri5weCe9Bygi2OFTTrdJBpvsOkPPsILDREowMvB5KimpeCYK9wHDPVP8KkIGCeUNNsx9l4dSJ8QgTBOo2arfMV6kOmiXCH5xZp9UCKSBSQEwUUMsi4T6ar9uaW5dqRqLgXYwhPuzNddBrhUFgeEIYSE4ukIoCogn5DSBB4fNEpyWaxI2JoVNcrDmolCixuOGBlOrV6FEfn991rZmKR+vCIvQPOxZ7hHfgUMjHfVx8OXI7ohTHhlAhCn4iWVGA+FWIBb85CueIN5kT9TPwYEmXC5YcJjV0JeiMqQJ+4Az3kW+wUutCgo0tC8WlJI3rQCtWKoIMo9NACsDDpQIJCgqjFmQa0uFiu26Zqfbaa6REcILBUDjprFYA2QSJ4vA21EqWOLgYFp8nrvIUoURUH4alSHZ1iCq0OJnkj3Hck3fPEYCFeEFQQmrz/wecgnGJF0cAwKI7PI0DHgxCSYdj2KDLvf+foPp34QwDZPv2An4s+8o4+YDYsb5omVwEkAmB6tC002skQR2YkdMS4jYGYOeRO+qBC0K/RFuG5gzgha1a+YBtoF34WpZSOSTATUk0BV33m16TcG6Gbbt0XU0GfDUQNqW4rOTuNVM/WfgGCP4NeV4mlQoYZffiKVFtt12PuiKZtW0a2+9TmjMAZB8w+GHlI59hddC1KmGqlRGA/3PaGF+g7LBLYYjyLYL7UQPMCq6BlMFjwrpvias+kF3CI/EIM9HNj3vJFBoDOH/geUUe3rAbZEAOugCqZFhpgKy2CQcFkYAcVPUSj8VGlF2bNLJjlbYbIhxj3hViqu2ZUHyZgUfmw0e4mjCLm+KLRfI4WywUaNwnTYxblTrtNYBabACzRMHrbFCPHFCB99UjW1h3AdbBxO9WpG+FA7k6sBOAgFowj4kS0E74OZGKeUlsVZwePUwVw9UEudo0DqN2mNJgJrpVmgX4XKpA2xwluMycWXaxYncAueoSP7oxOGtZeAkAf0MItvCPyF+dDLfM4iAk5N0poChfINw1mcPtqsQ8t6H5xCUhsTYgWuGX4523ofrcv39vwrQm/tKD7RQ/+aQtalG4TvlrQferBVweyxN9pwbcGvO3n7LZXB25jQ0w/+UePj2YJw/Oo0lop4igpUoFqNpLOQ6DZ6D+YuWC6DhCnz8D+244Nr3+oeWMZGHhkE/igPRAPbFu+bQeQENzFZTM1z7ngOIPqvIPQz+Vq/oEbvBrBdgetnnMItxgOjyMmsuJlXRai/V5XDk3LfEz6EmyEDH6Y4aCN4Q2razosCFrA4MCcahsnEb2yGzFErh6PcM3QiLilRo900Dieqp3ZvBvrQoQ1tKJGqkmIje1BV/w14GGe/kB5KE2smak9cPMJNiPt6pVoI7ma2PY2oZ6QKgQfusmACtN7oE3VfOIMmE2oDYUXG/yfpovZYwCAG9v6PA/YE7dWemLR209cNcdj1iGiBRBZGuPOJtbh+IWpotvydqmiF2HjEBtQpUQFRCFdgtBuStNjJCP2jBDRNGEnkzTU8C3JAkgAT/iYhl8rue1Er4pJLqZhtojyTxQB5EzcIlIGW0MoLeImJKBpyikEiJgsiMkAF8wGH5OdKB7YHIAuIdTcK0YPh94W1bvgcnswCjMKUARw2dYGlWu/C6iXDY+MT5iTsRO0cAvsEsMA1JRe++MrSLrigRxFX46pN3TsdT90xe5/fXfEvb3BkaOs0YnRGoSuBh5BTUNOJDf6SKZ6YAr4zgMGQHIivNAjlBfas6CP1LcAMqJtoQncVB+EZGGhoADbKqOQKHSKB5pacGenIVEAAEbBMkFrxBbph12EfMgM9lFN3GUjlzj9xlhDZHRuKc12HTKKMNlV9oJME7QpDjiNApc0h7mlfpO17sbOm262RRkmnWri+tvzdB3QWbB5HbCgsafDozLJfczGX+aq1JCVdNQr3uGbx3d8d/4ki/BBdKoD5PcopBL2ReWxuosvEyNheBXkqqWDdi8CH1pxhm3tCuVRnbM1OgBWdjXGkvO6f9BBCya6KpMTEJ+13w3KmeKYZAOwSiBuLxtTS/V08BQNjckPtSRX9krwJdCDQxsQ0fJqOzqJ1K4KpjFliDOgs82bRO1Y/guEauOTA8suVhTyNMMBW8JbvaCOwjBBAsh2gK5E0ivAlPmdEHEbYinIu1Vvy5KE2B0jJYcTBltySMpk8Km520YpNZq72TJMILJIlSGBPuLbkMJgGmTzsXPQR6/meVoH9rBNCpbi8001QmeSbAwA8Doppmm7zTBZEzFMgdcTQWAAR12IxXEonjDUntAJmPBs9czDtu066WtTYhM3/4v9CferD346qthGrFLxmKBMTsHzeOJQXHRZy+GwqFxqE6z2yXY0YGTSKljbBenRQtJmtp3/jZ+ghYgxl1oW+YjqVhje0k/qc4DBFkwPmdI6odv2GNCS4c1eYa+K2rWtmgOe6jbrj5phXB2QJ70H9rpqe+fdOJKJ0ThmRr1lQzpIkKzwM7rChoFCSDUO6Cx8jeKIqaCzsPuYG0dcUX4qM6SGcWtCcCcOqdaraErvVO6PnQzbucd/VZT63tvggJoAbSbmuKEuCghAAdlGj6WWifTCLRqisjDwFNO3Md/XBcAbgoDGhzVUNwztB6oWkJeKLUQuYRUx7zMaeCnDUTfTgt0ANtAPgqISQQrIBAvA2ukHacdUeVMH6VfbduTKu7m2Rsf7ymtzDcOLQWzAyEKDBIXTSBG4HlC2sOwYrZT7py8XGpkxDgJcAeOEWmam9reQZAKdMkG5GSeZtrU/ccUzUEZlg04xg8CeOiXVzrY2kV4oQ4RLWQTFJ7MaDITeyoAKigyrCq6ha+SXItP9FZf46UiyS+3QgKn2ihgt3oQA2cE9QSG+jmoEZbsP3f4MYyjrE3VH3ZLYhXIY+5FjqAFkLAB0EOwT9AeSbIedJM8Wc6s1J5BFiv018CDnq6jtX6tx0wLkEaVViEVAXxJKD9c2lL/PotzEwB7zATT2RasgNIbYRrLtEjczDGWaboH6h/0pgOtQG7TEiLaD1d2p6NAd7sazB8R7IuS2xScoCpNBSG1FAZr1qXASmrqY9O0UrdkyEljNdDhUmecBPKvbn2WuUkLe7TFhygZiQl3A2e55RVidOi42Q0h3wHhw5bwb3smYllrkITF6gw3rchnz9tn2MhCiCJr2tr3K8xO1EKF4mILKsf8HQRSi+x1M+53j/3cg9FR3/wWykT8xNcOrWAAAAYVpQ0NQSUNDIHByb2ZpbGUAAHicfZE9SMNAGIbfpop/FQeLiDgEqU52URHHUsUiWChthVYdTC79gyYNSYqLo+BacPBnserg4qyrg6sgCP6AuLo4KbpIid8lhRYx3nHcw3vf+3L3HSDUy0w1OyKAqllGMhYVM9lVsesVPRiiOYY+iZl6PLWYhuf4uoeP73dhnuVd9+foV3ImA3wicYTphkW8QTy7aemc94mDrCgpxOfEkwZdkPiR67LLb5wLDgs8M2ikk/PEQWKx0MZyG7OioRLPEIcUVaN8IeOywnmLs1qusuY9+QsDOW0lxXVao4hhCXEkIEJGFSWUYSFMu0aKiSSdRz38I44/QS6ZXCUwciygAhWS4wf/g9+9NfPTU25SIAp0vtj2xzjQtQs0arb9fWzbjRPA/wxcaS1/pQ7MfZJea2mhI2BgG7i4bmnyHnC5Aww/6ZIhOZKflpDPA+9n9E1ZYPAW6F1z+9Y8x+kDkKZeLd8AB4fARIGy1z3e3d3et39rmv37AbB3cr99otSLAAAQ5WlUWHRYTUw6Y29tLmFkb2JlLnhtcAAAAAAAPD94cGFja2V0IGJlZ2luPSLvu78iIGlkPSJXNU0wTXBDZWhpSHpyZVN6TlRjemtjOWQiPz4KPHg6eG1wbWV0YSB4bWxuczp4PSJhZG9iZTpuczptZXRhLyIgeDp4bXB0az0iWE1QIENvcmUgNC40LjAtRXhpdjIiPgogPHJkZjpSREYgeG1sbnM6cmRmPSJodHRwOi8vd3d3LnczLm9yZy8xOTk5LzAyLzIyLXJkZi1zeW50YXgtbnMjIj4KICA8cmRmOkRlc2NyaXB0aW9uIHJkZjphYm91dD0iIgogICAgeG1sbnM6eG1wTU09Imh0dHA6Ly9ucy5hZG9iZS5jb20veGFwLzEuMC9tbS8iCiAgICB4bWxuczpzdEV2dD0iaHR0cDovL25zLmFkb2JlLmNvbS94YXAvMS4wL3NUeXBlL1Jlc291cmNlRXZlbnQjIgogICAgeG1sbnM6ZGM9Imh0dHA6Ly9wdXJsLm9yZy9kYy9lbGVtZW50cy8xLjEvIgogICAgeG1sbnM6R0lNUD0iaHR0cDovL3d3dy5naW1wLm9yZy94bXAvIgogICAgeG1sbnM6cGhvdG9zaG9wPSJodHRwOi8vbnMuYWRvYmUuY29tL3Bob3Rvc2hvcC8xLjAvIgogICAgeG1sbnM6dGlmZj0iaHR0cDovL25zLmFkb2JlLmNvbS90aWZmLzEuMC8iCiAgICB4bWxuczp4bXA9Imh0dHA6Ly9ucy5hZG9iZS5jb20veGFwLzEuMC8iCiAgIHhtcE1NOkRvY3VtZW50SUQ9InhtcC5kaWQ6Y2JiNTQzNTUtMWUzZi00ZGVjLWFjY2UtYjFmYjdhNzZmZmZlIgogICB4bXBNTTpJbnN0YW5jZUlEPSJ4bXAuaWlkOjcxZjZiM2FmLTM3ZjMtNDVmZC1iMGUwLTdlN2Y2ZGZiMmMwOSIKICAgeG1wTU06T3JpZ2luYWxEb2N1bWVudElEPSJ4bXAuZGlkOmNiYjU0MzU1LTFlM2YtNGRlYy1hY2NlLWIxZmI3YTc2ZmZmZSIKICAgZGM6Zm9ybWF0PSJpbWFnZS9wbmciCiAgIEdJTVA6QVBJPSIyLjAiCiAgIEdJTVA6UGxhdGZvcm09IldpbmRvd3MiCiAgIEdJTVA6VGltZVN0YW1wPSIxNjk1Njc1NDEyOTczMTg5IgogICBHSU1QOlZlcnNpb249IjIuMTAuMzQiCiAgIHBob3Rvc2hvcDpDb2xvck1vZGU9IjMiCiAgIHBob3Rvc2hvcDpJQ0NQcm9maWxlPSJzUkdCIElFQzYxOTY2LTIuMSIKICAgdGlmZjpPcmllbnRhdGlvbj0iMSIKICAgeG1wOkNyZWF0ZURhdGU9IjIwMjAtMTEtMTNUMTY6NDQ6MTEtMDg6MDAiCiAgIHhtcDpDcmVhdG9yVG9vbD0iR0lNUCAyLjEwIgogICB4bXA6TWV0YWRhdGFEYXRlPSIyMDIzOjA5OjI1VDE0OjU2OjUyLTA2OjAwIgogICB4bXA6TW9kaWZ5RGF0ZT0iMjAyMzowOToyNVQxNDo1Njo1Mi0wNjowMCI+CiAgIDx4bXBNTTpIaXN0b3J5PgogICAgPHJkZjpTZXE+CiAgICAgPHJkZjpsaQogICAgICBzdEV2dDphY3Rpb249ImNyZWF0ZWQiCiAgICAgIHN0RXZ0Omluc3RhbmNlSUQ9InhtcC5paWQ6Y2JiNTQzNTUtMWUzZi00ZGVjLWFjY2UtYjFmYjdhNzZmZmZlIgogICAgICBzdEV2dDpzb2Z0d2FyZUFnZW50PSJBZG9iZSBQaG90b3Nob3AgQ0MgMjAxOSAoTWFjaW50b3NoKSIKICAgICAgc3RFdnQ6d2hlbj0iMjAyMC0xMS0xM1QxNjo0NDoxMS0wODowMCIvPgogICAgIDxyZGY6bGkKICAgICAgc3RFdnQ6YWN0aW9uPSJzYXZlZCIKICAgICAgc3RFdnQ6Y2hhbmdlZD0iLyIKICAgICAgc3RFdnQ6aW5zdGFuY2VJRD0ieG1wLmlpZDpiZjlhMzhiNi0xNzU5LTRhMjItYTFjNC04MWU0MGU2YzczNWEiCiAgICAgIHN0RXZ0OnNvZnR3YXJlQWdlbnQ9IkFkb2JlIFBob3Rvc2hvcCBDQyAyMDE5IChNYWNpbnRvc2gpIgogICAgICBzdEV2dDp3aGVuPSIyMDIwLTExLTEzVDE2OjQ3OjUxLTA4OjAwIi8+CiAgICAgPHJkZjpsaQogICAgICBzdEV2dDphY3Rpb249InNhdmVkIgogICAgICBzdEV2dDpjaGFuZ2VkPSIvIgogICAgICBzdEV2dDppbnN0YW5jZUlEPSJ4bXAuaWlkOjA4N2VlZTdhLTcxZDctNGExNi1iZjQzLWI5MTlkYmNlYTg4YyIKICAgICAgc3RFdnQ6c29mdHdhcmVBZ2VudD0iQWRvYmUgUGhvdG9zaG9wIENDIDIwMTkgKE1hY2ludG9zaCkiCiAgICAgIHN0RXZ0OndoZW49IjIwMjAtMTEtMTNUMTY6NDc6NTgtMDg6MDAiLz4KICAgICA8cmRmOmxpCiAgICAgIHN0RXZ0OmFjdGlvbj0ic2F2ZWQiCiAgICAgIHN0RXZ0OmNoYW5nZWQ9Ii8iCiAgICAgIHN0RXZ0Omluc3RhbmNlSUQ9InhtcC5paWQ6NzkyY2NiNmItZDdjMC00YmRhLTg1ZmQtMGMxMWZkNTFlMjkxIgogICAgICBzdEV2dDpzb2Z0d2FyZUFnZW50PSJHaW1wIDIuMTAgKFdpbmRvd3MpIgogICAgICBzdEV2dDp3aGVuPSIyMDIzLTA5LTI1VDE0OjU2OjUyIi8+CiAgICA8L3JkZjpTZXE+CiAgIDwveG1wTU06SGlzdG9yeT4KICA8L3JkZjpEZXNjcmlwdGlvbj4KIDwvcmRmOlJERj4KPC94OnhtcG1ldGE+CiAgICAgICAgICAgICAgICAgICAgICAgICAgICAgICAgICAgICAgICAgICAgICAgICAgICAgICAgICAgICAgICAgICAgICAgICAgICAgICAgICAgICAgICAgICAgICAgICAgICAKICAgICAgICAgICAgICAgICAgICAgICAgICAgICAgICAgICAgICAgICAgICAgICAgICAgICAgICAgICAgICAgICAgICAgICAgICAgICAgICAgICAgICAgICAgICAgICAgICAgIAogICAgICAgICAgICAgICAgICAgICAgICAgICAgICAgICAgICAgICAgICAgICAgICAgICAgICAgICAgICAgICAgICAgICAgICAgICAgICAgICAgICAgICAgICAgICAgICAgICAgCiAgICAgICAgICAgICAgICAgICAgICAgICAgICAgICAgICAgICAgICAgICAgICAgICAgICAgICAgICAgICAgICAgICAgICAgICAgICAgICAgICAgICAgICAgICAgICAgICAgICAKICAgICAgICAgICAgICAgICAgICAgICAgICAgICAgICAgICAgICAgICAgICAgICAgICAgICAgICAgICAgICAgICAgICAgICAgICAgICAgICAgICAgICAgICAgICAgICAgICAgIAogICAgICAgICAgICAgICAgICAgICAgICAgICAgICAgICAgICAgICAgICAgICAgICAgICAgICAgICAgICAgICAgICAgICAgICAgICAgICAgICAgICAgICAgICAgICAgICAgICAgCiAgICAgICAgICAgICAgICAgICAgICAgICAgICAgICAgICAgICAgICAgICAgICAgICAgICAgICAgICAgICAgICAgICAgICAgICAgICAgICAgICAgICAgICAgICAgICAgICAgICAKICAgICAgICAgICAgICAgICAgICAgICAgICAgICAgICAgICAgICAgICAgICAgICAgICAgICAgICAgICAgICAgICAgICAgICAgICAgICAgICAgICAgICAgICAgICAgICAgICAgIAogICAgICAgICAgICAgICAgICAgICAgICAgICAgICAgICAgICAgICAgICAgICAgICAgICAgICAgICAgICAgICAgICAgICAgICAgICAgICAgICAgICAgICAgICAgICAgICAgICAgCiAgICAgICAgICAgICAgICAgICAgICAgICAgICAgICAgICAgICAgICAgICAgICAgICAgICAgICAgICAgICAgICAgICAgICAgICAgICAgICAgICAgICAgICAgICAgICAgICAgICAKICAgICAgICAgICAgICAgICAgICAgICAgICAgICAgICAgICAgICAgICAgICAgICAgICAgICAgICAgICAgICAgICAgICAgICAgICAgICAgICAgICAgICAgICAgICAgICAgICAgIAogICAgICAgICAgICAgICAgICAgICAgICAgICAgICAgICAgICAgICAgICAgICAgICAgICAgICAgICAgICAgICAgICAgICAgICAgICAgICAgICAgICAgICAgICAgICAgICAgICAgCiAgICAgICAgICAgICAgICAgICAgICAgICAgICAgICAgICAgICAgICAgICAgICAgICAgICAgICAgICAgICAgICAgICAgICAgICAgICAgICAgICAgICAgICAgICAgICAgICAgICAKICAgICAgICAgICAgICAgICAgICAgICAgICAgICAgICAgICAgICAgICAgICAgICAgICAgICAgICAgICAgICAgICAgICAgICAgICAgICAgICAgICAgICAgICAgICAgICAgICAgIAogICAgICAgICAgICAgICAgICAgICAgICAgICAgICAgICAgICAgICAgICAgICAgICAgICAgICAgICAgICAgICAgICAgICAgICAgICAgICAgICAgICAgICAgICAgICAgICAgICAgCiAgICAgICAgICAgICAgICAgICAgICAgICAgICAgICAgICAgICAgICAgICAgICAgICAgICAgICAgICAgICAgICAgICAgICAgICAgICAgICAgICAgICAgICAgICAgICAgICAgICAKICAgICAgICAgICAgICAgICAgICAgICAgICAgICAgICAgICAgICAgICAgICAgICAgICAgICAgICAgICAgICAgICAgICAgICAgICAgICAgICAgICAgICAgICAgICAgICAgICAgIAogICAgICAgICAgICAgICAgICAgICAgICAgICAgICAgICAgICAgICAgICAgICAgICAgICAgICAgICAgICAgICAgICAgICAgICAgICAgICAgICAgICAgICAgICAgICAgICAgICAgCiAgICAgICAgICAgICAgICAgICAgICAgICAgICAgICAgICAgICAgICAgICAgICAgICAgICAgICAgICAgICAgICAgICAgICAgICAgICAgICAgICAgICAgICAgICAgICAgICAgICAKICAgICAgICAgICAgICAgICAgICAgICAgICAgICAgICAgICAgICAgICAgICAgICAgICAgICAgICAgICAgICAgICAgICAgICAgICAgICAgICAgICAgICAgICAgICAgICAgICAgIAogICAgICAgICAgICAgICAgICAgICAgICAgICAKPD94cGFja2V0IGVuZD0idyI/PpiCAK8AAAAGYktHRADyAM4Azixa7L8AAAAJcEhZcwAACxMAAAsTAQCanBgAAAAHdElNRQfnCRkUODTKkLgcAAAgAElEQVR42u3deXxU1d0/8M85d/bJZIEQCQlJSCALIIsiyI6Ca9XW/fkp2lZtbRWrbUWlbLKruNdHLd3U52lxaWtd+lSsqGwCgoDIkoQASSAkEJYsk2WWe87vj5mEgAFJSEKWz9tXXgkwmYx3bu7nfs+593wBIiIiIiIiIiIiIiIiIiIiIiIiIiIiIiIiIiIiIiIiIiIiIiIiIiIiIiIiIiIiIiIiIiIiIiIiIiIiIiIiIiIiIiIiIiIiIiIiIiIiIiIiIiIiIiIiIiIiIiIiIiIiIiIiIiIiIuoYBDcBUeejtRYAnOW1FXF7D++zlBwrkVJDaCl0YrcEldQ9MeCxu4uFEH5uLaLOwcJNQNSpgtwSVMHYNbvWe97buSxz8YGPH0DVmgQoSGgICGgYUIkRkwruSbzsiY35m/ddkDz4mICoFEKY3IJErNCJ6NxX5PZNhd9kzlv1wg//WfTHS+Bwx8A6sGeKdNusQtY/1qdNFCqvH/4NRfCh5K6UX741dezPP86M77ebFTsRA52Izl2Y2/YfO5Dw8uo/pS3KmTkTjr6DM22pnnLtF8dUQPihoBo8XgJwQKKbtOkIYTWzfVuOwn9o2xPnvzDn7pG3F8R6unMonoiBTkRtGeSVvqr4tzf+M+mejZNnAEjv65zUq0oHrMVmrYAQEOFfcd3IL72GBrRGouHSFiEC+VWfFsGamvPOxc8tvHbolYV2w8ZgJ2KgE1ErBrlFQccs37Gi3z2r588orFieGe+ZkGAVwlpo1oq6X2x9hgcAHf6cYrj0YeULVFauLhoZe+POZ8Y+On9k34u2A/AKIRS3PBEDnYhasCrfVrQzY8HK39705r5XrodnWEa6EWPbpbxaay0kBJqTvBKAgoZNSN1HukVOsMSPqm8235/22Mu/GnvvutQeKfms1okY6ETUAkFeXH4o/o/r/jd55je/ngNHn0EZtn5RJapaluugaIlf5eNVvUZ3adWxwhHMqV1XimDljheGLpl7x4hbCmNcURyGJ2KgE1FzgrwmUBv/j00fJE1e//PpUEfSU10TE2p00Fps1goh5BkNrTcr2LVCb4tLQyOwr+qzIjguyP7nyPkLrh582V6rtJQKIQJ8h4gY6ER0+iA3AHhW5q7N+uWqRTM2Hfsgq4dnXEKEsFoLzGqh6m8qb92Dg4aGBRLJhksXqOpAsOKLvd+Lv2PFnHEPL7kwedBOADVCCM13jIiBTkSNVOW5JXmpi1e9cukf8p+9C+7B56db4urnyVs7yE9WN79uF1KnSLfOCRRWoTrn64czHl/8wOi7tyd1T9zHYXgiBjoRNQjyI95j8a+tX5r88Jb7Z8MWNyDDPqT7YV1jHFEBgfBNaPocHSjq5tfPk3YdKWzBXTX/KYZCzpKLXp9360U3FEbaIzi/TsRAJ+raQe4L+nt++PWypJvWTZ0OX05GSsSlCX6trAfMmlaZJz/7F62QZHFrvzYDJd4VRZERY7PfHvP4/En9J+QZQh4VQgT5zhIx0Im6SpBLAK51ezYOnLZq8dTPD7092OMZ0ztO2q35qgamVm0+vN60ij00DJ8kXWKXWeFH5Ze5tyTe+/7Mcb94c2Bi/xxW60QMdKIuUZXvPVyQ9MKqJRe+kLfwQbgGDE239rLvVlXtOshPFexOYegk6VY5/l0VqN379ez+T82+d/QPC+Kj4jgMT8RAJ+qcQX6sqjz+rxv/ljRl0z2zYLiz0h2j4sq1z3JQ+c/pPPnZhToAaPSSDu0SlkBe9SdFEJG5rw9fsuCmYd8vdFkdDHYiBjpRpwhya1CZsR9tW5567ZpZ01G9PrN3xCUJGrDuVzWic/0qaiQbLu3VgcCRylVFmdFX7nxl7Iz54zNGZwuggm1aiRjoRB0xyAUA++aCrVmPr3r+7vcP/PlSRI5M6yfdtr2qWge1avZyre27Yg8Nw/eWLpFrHvHDu2n7j5MffGPq2Ps+zopPz2O1TsRAJ+pIYW7bd7Qo4ZU1f05blD1zJpz9hmTY+kTkK6/wdaB58rOt1iOFRcdLl5lT36b1xTl3j7yNbVqJGOhE7T/IK33e+Lc3vpd0z5eTZ0Ki34ltTWWHmyc/u2odgNbobXFqK2RgT9XyIljTct4a8fTC719wNdu0EjHQidpdkBsKOubTHSvS/2vV4zOOeFdk9owYn2AT0lpodrZ58uZX7H0Md4M2rTfsfGbsY2zTSsRAJ2o/Vfn2ouz0hStfvP6v+165CZ6LMtONaNseVdUp58mbq24Z2dBtbi6REzzoR9XWzfenTXv5l2N+ui4tjm1aiRjoROcoyA+Wl8b/7ovXk2dvnzob9t6DM+xZ0UWqWnpbqK1pZ67WY4RV95COYG7tF6Uwq3Y8P/h3c++8+Fa2aSVioBO1XZCH2pp+mDR5/QPToUrS01wTE2q0aT1g1nSpefKzOfjUtWlNCrdpLQy1ac15b9TCBVcPmrjXIi2H2KaViIFO1BpBHmprmrM266HVC2dsPvZhVqxnXEKEsFjzzRpxQlBRk6p1CYE+hlvvVlUBVKzNvzJ+8pr543798oXJQ3aAbVqJGOhELVmV55bkpT216pWJf8x/9sdwDxmYbunBefIWEppfV3AKi06SbuQE9lWjaufmqZlznpwy5u4dSd0S9nMYnoiBTnRWQX7EezT+z+uXJk/dMmU2bOcNyLAP7l6qa4yj4bam1HIHpLplZHtIm44R9mDuCW1ary+MtHs4v07EQCdqWpD7zUDPD7Z8lHTT2oenw5+bkRJxaUJAK2tRe21r2tmCXSskW9zaF27T6owYk/3PMXPnT+w/nm1aiRjoRN8Z5BKAa/3ujQN+s/rpX3966K2hkZ4xSbHSbi0wq4UJja6xylt7CXYNGySSLS69K1gRQOWXu25O/OkHM8c+uPT83v2zWa0TMdCJGq3K95YWJL2w+vcXvJC34CG4BgzJsPZy7FZV4Dz5uVM3v+4WFp0o3SrHn1uB2vyvZ2U9Mfve0T8q6BV9HofhiYHOTUAUCvKy6or4v2x4J9zWNCIr3TEy7pj2WUo7aFvTzlmtA4BGvLTrCGEN7Kr+pAiye+7rw19ecOMF1xa6bU4GOzHQibpokFsDKhi7bNunqdeumT4dNRszE9wTEqQQ1n3Bas6Tt+s3TyHF4taVDdq0vjxmxvwJmWzTSgx0oq4U5PVtTWeveu6eDw68dikiL07ta0RYC4PVwg/FefIOUbGHlpFNlC6xyzzqh/er7T9OfuiNR8be93FmfD+2aSUGOlEnD/PjbU1zZs6Eo9/QDFsf917lFf4u09a08wW7R1h0L+k0c3zfHIWvZNsTg16Yc9fI2wt6sE0rMdCJOl+QV/q88W9veC/png2htqb9nJf18mq/tVj5OE/e4UMdADQSpVPbRF2b1r45b414auH3L/ge27QSA52oEwS5RUFHL9+xIv2O1XNnHKz8LDM+YnyClW1NO/O7jj6GW5eq2oC3ck3R6Ngbdy4e+yjbtBIDnagjV+Xb9u/MWLjqtzcs3f/KDYgItTXNV1Waw+udvWLXcAtDJ0p3uE3r11vuT3vsv3815t51qWzTSgx0oo4T5AfLS+OXrH0jeda2hx8PtzWN2q+qZJU2WZV3sWCPFlYdJx3B3Np1pQhW7nhx6JK5k4ffXBjjjuYwPDHQidprkNcEauP/8dUHSZO/fHA6VHF6mmtSQq0OWovY1rQLhzoAaCQZLg3oQKH3syI4hmS/N2rRwqsGTcq3SstBtmklBjpR+whyiVBb0/5TVi+Y8c2xf2V194xN8AirNd+sZkVOJ0gz3Hq38gZQsS7/ip63r50/bupLw1IGs00rMdCJznVVnlOSl/rsqlfHL8l/5idwX3B+hqW7LV9VaR+Xa6WT1C0j6xFW3Uu6Qm1aq3dunpox58kpY+7akdQtkW1aiYFO1NZBfrjyaPyf1y1NfuTrKbNgjxuQYR8cW6JqjHIdZFVOZ7IXIVbadLe6Nq0aOb+78LV5/zX8xsJIewTn14mBTtTaQe4L+nt+sGVZ0s3rpk5HICcjxX1pQlBr636zmvPk1KQDYF2b1hSLW/u1Chzwfl7kcI/Nfm/M4wsmDZiQJ4U8wjatxEAnatkglwDc63ZvHDBt5eKpnx9+e7DTM7p3vHRY95rVnPiks67WLZBIMVzIMyv88H6Ze2Ovn3w0e/xD/3N+Itu0EgOdqMWq8r2lBcnPrVpy0W93L3wg1NY0wZ6vvOA8ObWUE+fXnTrHv7sCtXu2zOr/5Ox7R/2QbVqJgU50NkFeVl0e/5cv30mesvknM2G4szIco+KOaJ/lMNuaUisdFOtuc+sZbtOaF27T+tpF/73gpguvY5tWYqATNSHIrUFlxi77ZnnqNWt+Mx21X2UmuickiHBbUwjJjURtE+xaoY8lQldqf+Bw5aqi/lFXZf/32OnzxrNNKzHQiU4b5AKA46uCrZlzVz531/vFr01E5Mi0NOm2FprVIsC2pnROgl3DIQydJF0it2Gb1jE//zizVzrbtBIDneikMLftP3Yg8aXVf0x/MmfWb+DoNzjD1iciX1UJnzY5T07nVN38eqSw6njpNHN824/Cd2DbokEvzLmbbVqJgU7UoK3pxnBbU4H0dOdl8RXaby1hW1Nqd9U6AGgkSIe2CyPcpjUt560RTy+8buhVhQ6LncFODHTqckFuUVpFL9+5Mv321XNnlFZ8ltnTMz7BLgxrQbCK8+TU/oNda6Ra3LpI1QR83i+KRna7YcfT4x5dMKrvcLZpJQY6dZ2qfHvRzowFq357w9J9r9yAiOGZ/YwoW2F4uVbOk1PHCXaNCGHRvaRT5AYP+lG1dfP9aY+9zDatxECnTh/kxeWH4v+w9o3kWdumPg5H8uAMW0bUPlUlq7XJIKcOHezRwqLjpDOYW/tFKYJVO14Y8uq8O0bcWsA2rcRAp04V5DWB2vh3N/8r6fZ1906HOnK8ramq5Tw5dZJQB0JtWp1aQgTyvZ8WwXFB9j9HzV/4vUGX5VvYppUY6NSBg9wA4FmRszbrodULZ2w59mFWN8/YhEi2NaXOv/cjzYgItWmtXJd/xXm3r50//uGXhiUPYZtWYqBTx6vKc0ry0havemXSH/Of/RHcQwdmWGJthapa13B4nbpExV53m1t9m9YtD2c8/tQDo+/entQ9cR+H4YmBTu0+yOvbmm6dMgu2HgMz7EO7F6tqo4JtTamLVuvdpVV3F476Nq1LLnxt3q0X3VAY6fBwfp0Y6NTuglwAsL+/+aMh319z/2wE9mSkuC9NMKHrl2vlPDl13Wo9tOenGC4d0CpQ5P28CO6R2Z9OWDz3kszRmxjqxECn9hLm0q8CUY//31NDFm2bMT86ZuywbsJm3WNWcx8jauTA29fi1rtMbwBl69Y/c9HLj/xq4s8Z6nRWLNwE1BJMrSLvf3faTX/If+a+IbHf658bLLPuUV4hIblcK1Ejgb4rUCmipdWa1P2qEb/+6r7F1f6qqVprhjox0OmcVue255e/2v8Pe5/52flRVw3c4j9sCa3yxjAnaowCIIREmTZFWfCYdUi3q4fP3Dp1cWr3VIY6ndWJItHZhLnlq4Kv+w97a8gL/WOuGLUjUGaTgkFO1JSDsCGETpLOwJ7K5St235n/s9QeyXt5Wxs1FRfLprOsNHTM4jWv3gxXn0HlymcFw5yoaSfFAIJaCQVthQUZv1v7eiYAB7cMMdCpTW3fv9Pz1oFXr0yzpUYVKR9HfIiaVaUL5AerRZLzkp5P7Z79q8Ij+8/jViEGOrVdZaG15Ys9G6IhEB1qjcYRQqKzSHVYtWGDicSvCr+2hG8DJWKgU+tT0NEritZfC3tat6PaB16SQdTMk+NwovuFqWGFddOBb3qAFy1TE3GHoWarDfgic7yFV0BGRdUqxTSnsylOoaEhIREhZKuP9VRqE4BGe1t+2K8VYPTr8XXZrsl+M5APoJh7BzHQqdX5Aj65KXjUBWkzAprD7XR2Yd5bOlGmfKgIHkNo8FC3yk8CgHhLN2ghUaJq202oCwBKawHpchdXHxxmmkE39w5ioFPb0QpCSGgBDc0xd2rGLgSN84Qd+6o/A+wDMc4zEH5thhvqtuxPAgSEAL4oXwboCMTZ++KQ9rezSl1LCWkPvVIiBjq1/VGZBx9qlgTpQFH155gz4Fn85OLbEeXwQLXSDqUBCCFwoPwg5n/2At44sBTxjiwUq1q0p2tANC8wJQY6nTOs0KkZeggrivxFuPa8uzF14n1wGvY2+bn9YlOw6IrH8MZfVuOI6YNFSAQZotTB8Sp3YoVO52yncQsL4NuFSYkj4TTsMJUJDQ2t9fHPLfWBE58zztMDt/cYDX+gADHSCt52SazQiYiaHel1QueDUsjQ3Lmo+/eWC9n6OfnwJ6WC9beLETHQiYhaONpPCOFWvS6MQU4MdKJ2T5xQ3fHA3Rrh26JXhjcIbh2+P9xnBvD+N8vgrfXCkEazRsSlEKgJ+pDULRFXZI4/4fmJGOhEjSdou7ooTgNIkE64hYEaHTzzbxJt8MJEK76Wsz2H+Y7v1xqwCwNaAPvMGgRaY945/P8eUAHctfEFeA99AtiBZnX9MQBUAj8d/Fh9oLfJ+0zEQCdqGUnSgcLqz4Ag9/IWp0KhGO0eDQgDZTrQKvdxCwhcFpGKd/3D0d/aDb4zPTFrIEo6sMn4CnGObg2fmIiBTnSaquqcHybr1gHrISworPoMj2TMx7WZlyHaFcX3pwUHF2oDPny172v8bPMcQHgQbXhQpgOtkpS1ZgAwy1Ai7TjajEDvozVgFiOoTb6BxEAnOsM0PedD7hoaydKFgqpPsXT8u/ivC3/A96WVDEsahIv7XIgh7/0IZcoHj7SF10dvrd2LZTURA526SIWukSidKKhZhQfSZtaHuanMVr5SuouW6tAY3Ks/3h09F9cvuwpxUZNQaVZx2xAx0InOvoZzCgMIBHBd5mX1YW5Ig5um5Tc1lA5doTY8ZSjgHoBSsxoWCJhctJTonOFKcdRSB/lzehw3IBDQCpBAN2dozpyVeWu+3aFta7PY0deejApVC5sQDHMiBjp1eO3kojhoQLGVa5u+8Wb4cjludaJzi0Pu1HIVeju5D/27XkTdut50ZpX46Uc6OApCxEAnVujn5GVqCCF41TQRMdCJOuw5hw6F+c6DeVi1Zz0ibK76i7vOaIW1k1cYO/l7mvMcp3oMGvlZTf2+5qwaF/4eIST8QR96RccfX2GNiBjoRO2mOodA7sHduPf/JgMxALjeSOMMAF7gtgEP4fLM8RzPIGKgE7U/DqsdiAEujLwGx1Qt2Af7pBMfDUQYNnxj2YVezlhuECIGOnUp7aw5y+korQATKDNrsEdVM9C/lehAT5iAmYeACnJ7EDHQqYuFQIcZlRX1n+sujeMtVyduoLo3U7aTN1Wc8L414byEF+ETA52oCxWj1I7fCCkEICywCwkPjCY/pRUSEFwLnhjoRERtUHuHg7uRQParIGCWo0R6oHSgyWcJbkjABMyGjWPYD50Y6ERELRfkGqHb4yABvxlo9DFOqwOw9USiNQpVTWyfqgHESAdKbHGwGtZvn0UQMdCJiJpPInRhYndphxMSqAJi3d3qY1iI0IrULosDr1+3+PhaAc06cRBQWsNqWNBYojPbiYFORNTMylxBIdXiwR7/YRzxrcRfr34XN19wbfgBDcJWCEQ7I1vlNRyv4jn+Tgx0opOPkrojXelObR/kOryLZBnR2Fm1DHb3JVh93dcYljQoFK7hlfwaCq27fyoNw/j0wSzQePc9i7AAOsgdlxjoRERnGuZRwooewoadZcvws/RpeHzSr3BeRCyUVvVNYOob5zS2zK44Vag39vW3H6XDXfi01jCkAa01CqsPAkY3+LRipU4MdKLwEZNHQ2o8zHV4iD1QjvKaVfjDuL/ihyNuhUVImMqEIUO3oymtIIUM3WImGnmilnxRAP617T/4vPQvSHZfggJVw0AnBjoR0anP8zQyLFHIqV4F2PtjzY0bMKrPsPoArw9zpSClRHWgFp9kr0BtwAcpjFZocxsa1t9SsgMLcmbD6hyF/crHMCcGOhFRo1U5NKKFFedJB3LKP8bklAfxxOXTkBB1Xv3QtxQSSoeGdqSUKCw7gMc+XoSle14KHZlaa9Wf0IoziHOOw2EdhOLyQsRAJzrhKM6L4qj+lrREw4USswZllavw24v/hJ+OngybtNZX4nUVugzforZq95cYt+yngD8P53e/ClU60Ko7k0+bKFY+hjkx0IkaqXoY5l19F9CAgkamJQrZNdsBw4lPf7AGl/QbFQrwBmFeN3ceUEH8ad2b+NmaOwD3CCQ7R+CbwBFAyBNL9MYuijvzi9wbPQPlcrDUGU+oiVqmQqcufUZnFxKZRiSyyz/G9+Ouxt7bPsMl/UaFrlzXGlLK8NehufPiylL8/J/T8LPVd6Bf5CTESBsKVDWEMMLpLI9/CHnin0/+u8b+/bQf3GGJFToRK3Q6gQmNbtIFBySyyz7G4otewX1jfwSXxXGKIXaBLwu2YMRHU4DqNciKvgI7zfJwiDNoiRjoRHROzuTiDDcKfRsBGcRH136GK7ImhIJeKRgnDbGb0Pjrhr/jzhU3A85h6OOeiJ1mGeoGC0WbvWoiBjoRUT0hJDZWfo4J3S7HkqsWol+PFCC8uptRP8QeWsjlcNUxzFv+HF7Mnoc+UZeiTAew16yCgKwPWLcw4Gzw59bi1SZqYYK3qxEDnYi6eF0eisKgGcDCgXNx/6g7EWmPgFIKQopwU5TwQjFCYEvRDlzz71+iqOJj9I+5AtnBSiioBhemafSWTpSqWpQGW/+iuB6W7ogSFhxUPggO8xMDnYi6qrr+5d1d0XjskvtCTVdOuIr9+HD725s+wK2fXwfYBiE1YiJ2BMrCHdXqglSjp7BjX/VngC0TYyIHIahVK1yFrlF3f+W6io8ARCPOlopD2s9QJwY6EXXxA4gMHUJU3VXs0NBKw5ASZbWVePLTl/DEtt8gOfIS+ITCHtMLIU4cUk+QDhRVf47Z/RfjnosnI8YZGV58Rpy+6q57EnGaar3hDwqtQwshBIrKS/D4Z89hafHf0dORjhKuFkcMdCKiUMVeP8QuBXaU7MIdHz2KTUfeRWb05cg2K0M3qp80P95DWFHkP4Br4u7CoxMfgNNib5PXm94jFU9dMR1L//oFypQfBiRM1ujU0X8PuQmI6GyZ6viqb+99swwD3kzHpsqdSPdchmyzokGJfGKJ7RYWwJeLy3qPgtNih6nM+gvpWutDaQWtNXpGxuH2HmNR6y9AN2kFr30nVuhE1KWp8Hx5pb8az69Yglmbf4n4yHHQQiLXrDjhKnZ8K9Lrsl6EK315Qt/y0ND7yePmDb/7dFfF1f1d6HPd89bNzStlnuJEg4iBTl0Z13LvsqSU2FWaj/uWzcInJf+DrOjLsUdVwaf8pw3zE7O38UeFQliccqdr/OuT/+7UuyVrcmKgE337yMgw76L+k70Sl398DYBuSI+8DDvNCjR51beGVTk0BAR8ZgD/3PpvVNZ4YTGMU2X+6U82hEBNoBYp3ZNwZXjBm7rnJ2KgExHP38JXix+pKcPly38CyDSk2LojN1gRaot6dieHgAACKoD7v3oJRw79B7ADzXpSA0AlcO/gafWB3vRGLkQMdCLqrIGOurvANAa5srC1phgHzBqIsw3zhkU7BMZF9MG7/uHIsnaDTweb/BxR0oHNxlfo4Yhp+MREDHQiohMzUaBS+QFtwiKtCOgzn3sJX6p22sfUmH4geBRF0oYKHcCZXRQX/lprJBsKMIsRVEG+acRAJyL6rmAGNEwdmp9uyimBqnu8PnWVDmHACtnIBXbi9F8LAdngayIGOhHRaWI5WtrRU7oRYdgR1Gc+4K6hES0dKDQAQ8gzOGUgIgY6tcWRnbetdbGqXIQr7C1V64CaktAFaE1M3QIDQAVQEajiRiVioFM7OcIzzLvS+Vt4CDvS7sbG7y+DUgrNudpMCCBgBhHniT1e8rMUJ2KgE1EbBXr4s92w4cLeg1ronFCHu54x0YkY6HQuj/Accu+ilFYtsPuIE5Z8JaKmY3MWahkMcyIiVujECp06cFUgWqYu4JKsRAx0YoVO50jADCL/yL5QV7SGF7Q1XOOl4Z+/dR4oYCoTUc5IxEfFcYMSMdCJqC0prSGFQJmvEul/uwqoyQndtta0k0DAiAMqDuGJ0S/j0Ut+Hm6XSkQMdCJqE6JBhT3IkYEDiIWnyQvLADGGA98EP4Lb4uBGJWKgE9G5VKEDOKxrUKkBX5OueNeQSgKqwRKwp3xkcyp3VvvEQCcianLNbqBpS8to4Pha66d6ViEAWGATBlxNDGgFDYuQgGCDNWKgExF9p0hpAyBg6qbXxaervDUAU5mAqkWNCqBaB5r82vwIhEYAODdPDHQiosbDVoS/2lq9DRZ0R6y0ocishmyhnugCgDYkYFhQbkhAGU1+Dq9hhC7Wk6zRiYFORPQtMryqW3dXDN4Z/TxuXn4tiuyDkGqLwx6zspFWp00I8vBzOy0OLP3+szCVav6QuQC01rAa1pNOFYgY6ESnOnByYZkuV6WHFoK5acg12By7DVd99EvsqfgP+kdcgR1mBVC/NvsZPFcjQ+JSCHRzRbfZWANRhz/R5iagFjou8qjY5c7hQmGttMKQxAH45v+9hQf6zsCOsmVIlU7ECOt3nuXVrQxnkUb9ScLJQd9SHyfX5wKARVgAHeTOSwx0IurqoR5a+tVUJmLdMXjuurl4fcLb2OP9FMfMGqQaEdA41ZC5QBAKkMBBb2n4gCSglILSoQ/dgv/VPaepTAChC+X21RwCjJjw7XaMdWKgE1EXZ0gDSisYELhz+M1Yf9NmwGLFnqpPkGlENXo1uwBQqvyIcY7BvF2v4MuCLYAQkFJCitb7MMKjAf+37RN8Vvq/SLL1RHkzrqAnam84h04tVapxDr2LqhvOlkKGv9YYnjwEB257DzM+fl4IIzIAABqQSURBVAp/2v000qMmoVT7cEwH6ofqNQAfFCzCAGQ0Rnw4Gc8O/AVSu6UArXibmYbGpuJtmJc9HRbHSBxQPlbnxEAnanCU5BGxC1Ja1XdbO/51qOFKvKcHXrl+EYavHYSffXEn4B6B3oYb+8yq+lvbBIAqHYTbcAPaiV9tuBdo7dFvHTry9XSNxyEd+M5V6ogY6ETUqatyIQQOVx3DP7b9Gz++6BbYDRtMpSClrB+Ct0kL7h19B/r3TMe4ZT/BvppcZLmHY2ewosGzCVTpICyQSI2c1KrzgHWr0/m1iQJVwzeSGOhE1MUDPVxEG4aBn6+/A6sKv8TiK2egV2Rc6KpyNByCB8amjUDBbR/hkWUL8Fbhy0iPmoR9qgY12gwPwQsEobHH9KJthr95uxp1PrwojoiarL7duQaGR92Iv+7/LRL+eg3W7v0KQggIIaC0qv/aVApJ0b3w2k3P4fkRv0du2SdwaKC3dJ10Fbxo4/8DIgY6EREAoMSsQrxrHKAkRv19GP60bimC4fl0pUKLwBoy9LXDsOHBcffg4+tW4liwAPtqc5BhRJ3m1jYiYqATUZuwQKDYrEQPw4E0z0TcvfI2PPDeDBz0HoEMB7nWGlLK+kVeLssci7zb1uDK2MuQU/ExMo0oOIUEW54SMdDpXBM8EndV4ZvWUKGC2KOqkRV9BV7duwgpS2/Gxn1bIaU8YQgeAlBKIa17Et655WUsHPoisss+hkdLJEonbELCIwxEtOJH3SvnqAB1rpNrIqKWqA4EIDSwM1iGVPdE7PEdxkVvD8Zfxv8D/2/Y9fUryhnSgJChgI+wOjFt4gMY1DML13xyOYB4wJoIv/IBQpx41iAaPZMIt2XDqafF9QknnoAGelmiYArgoPKd8XrzRAx06iplGosdCt1CLiT2mF7EWaLhsV6K2z+9AZsPzsO0Sx9AN2cUlFIQUoTm2LWChMT3BkzCjthcPLx8Ib6u2o8Yw4mANlvpxENgZ+WHgEhCD1sKSrWfoU4MdCKixgpiAYlD2o9DGsiMvhxPZ8/E/x38Em9e+RTO75UZCv/whXMaALRC1nl98fdbXoEv4IMQspVem4YUEgfKD+Lxz57FmyXvoqejH0q4Whwx0InCuPQrnRTqdbLNcqR7LsOOqt0Y9FYW/n7pv3DD4KtPGIJHuFp3WOxwWOyt/voy4lLx1BXT8eZf16BSBWBAwmSNTh0cL4ojolY+15PINSsQZ+uB3s4JuPGj72H2sqdR7vOGVpRTqr5y1mjQ8hS6Rdunnvyc8VHn4fa48ajy56ObtIJX2BMDnYjoO6p1AYlDyoeDOoCsmMsxd9tUfO+te5BzaHfoKvj6IR5RvxiNaOEBn7rnPL7wjVl/ykHEQCciOsNQBwT8UNhpVqCf5zKsKfsKmUv74t87Pg3/q2g8hFvoo7GxA9bk1JlwDp1a6ojNMofOsIoQ2BWsQLw9EXbdG1e/OxFv+T/ALUOuCa39LkLhHlBB/N/25SivqYBFWsI91Rveo3aq+9aO/7sUErUBH3rHJGBSxpjwv+oWr/6JGOhE1OXU3dpWbNagryUScAKFx/afWM4LwGf6MXn90/Ae+gSwoXlT3AaACuCnQx6rD3T2ZSEGOhFRC9EAIEToXnOFRq9sFxC4LCIV7/qHo7+1G/w62OSfESUd2GRsQpyjW8MnJmKgExG1StWuGy+/a80AYJahRNpxtImBDmj00RowDyDYSovUELUnvCiOWkYHvb6IxVrHeCOaN+fNd5cY6ERN14EuitP1nzWvcj7tNlLcPkQdCIfcqeudxQoJGEC04USqOCnlm3NacvIF1qcrEE/VZEScwXOKM3wtwLcv+G4CpTUipB0lRhqskocIIgY6UTtVG/QBx4CvxIcAp1YbPykwAHiB4poj3B5EDHSi9qVuHja1ezKevfRVeOwRUFpxwzS2rYSAL+BD7269ORNNxEAnan8hBQDn98qs7/hFRMRAJ+qgtOalXs05ESIiBjp1iaN++2mf+l1xzYBq2a3N0yOi9oG3rVFLHdfFuX8JAAQgGdhteiZnCa+bzq1OxECnzlKhn0MmNCyQgAIqfN5QwLN0bPW6PGgGkOcvhkvY4dcMdSIGOrFCb4EX4IcCDODjvJUAAENKmEpBaw3V4EM3+Gj4d6qRvzvVY0/359N/vzrtc+qTXktjf1Zn8PNP/nnqFN93qu3R2ONVw+dUoUD/ev92wLsZ8YYLQQ6+E51TnEOnTjNEUKiq0dt9CRZlT8Oo3sNwzcBJMKQM/+upvuvbX5/JY8/kz41/vzij7xHNeJ3iND9PfMdzne71iMb+xgDyDufjx6sXAK6hOKr94dOq1nlvz2T7fvsUD1z9lRjoRM045raDi+IEipUPHsdoXPufy/BU6cu4ImMCIh0esGdmSw3DCPiCfmwp2oZb1z8BBMoQa+2Bw9rfKts3dAGjAYsQsGt54o/4jnboWgMGZLi/OhEDnahDCUKhBhKJzgl4ZNN9eGQzAFsyoIM44ch+uuVWzzT7T37c6b7/VM95pn9/Jq+psSViGwm60z6usaVr6/9NA8ICBAuAAAD38PowF61wEYUGoJQJqFr4VRC1OtD4EIA+6XODr4MqCKhTd3MjYqATNVa8tZOhgiA09msfUiIuhQBQpvy8WKSFKAAuSwqcLiuKVE2rhXnd+YSyWACLA8cMK6CbPuheZVhCRznJPYAY6EQdkgCQr6rDOzkP5i25XY9pEzB94T+1UJg3eJK6dQKcFgf+cu1imNpsZvvU8FNrDZvF2sjQA4fiiYFO1AEGDI4frnn1dWtFe8u/Yw1JIRDrjmnVV85lcYiBTvTto6Tm2iLU9N0mtMtIadQHbMNqPDT3rc/qJ9RdBNDYgkOGsADa5I5LDHSiBqUOj4nU5LA1oQAJHPKWhoIdAkqpFhwAOH7FXN2FcVprGNIAoHGgphQwYuDTChyAp46Ok4tEdI7iHDik/Ih2jsa8vFexofBrQAhIKSFF630Y4dGAf2//FMtL/wdJtp4o1wG+IcQKnYizkNTc/cYHBaswABGJ4R/+EC+e/wskRMXDVOZ3N9Fp7Ja8M/ihUkhsO5iN2TvnQDpG4oDytbvqnA2EiIFObXxA1oDQMELlFufQqVm8OogIIwK1ysQv1t/dNmeIBhDrGotj2myHF00KtvglBjq18c4jDJ0gXbpIVWs7LCLITULNii8Brw7CJQ0keibCEK3b6UcACGiFA6oWZnscX9Jm0GLYjkEIk3sHMdCpTTis9kC6PS6/qDo70yo9dp/WrNCp6fkVjtlqrZCvq9rsNKI9bgerkBrq8JEBkVe+Y7Paj3DvoKbgRXHUbDaL7eDFsee/hMDWkmhhA2fTqWWCti0+2unvlJBAoKRySGzmagl4uT8QA53ain9s8sX74IMvQlhZnROdzXiBVrDCEDARGJY0pFpwyJ2aiEPu1PyDkBC6tOKID+7MvQWqqk+EMKxVWgnW6URNowG4pUXvMo8FBkRflT8ocQDvoyNW6NS2Yj3dil8d9OjCmqo1Rb2NCGgo7lREzajOUwyPRuXGPfOGTVngtDmKuWWIgU5tXaX7bxt+c2FsxPjsncHSQE/p0AqK968RneEBWEMh1RKht/t2VF0T/6PPrx18+V4hhJ9bhxjo1OY8dnfx59e8OhfeTV8ACCRIp2bTC6LvpqCQbLj1HrMiALPwy1euWbDEIi2l3DLEQKdzVqUPSMjctPYHX04rqVjxRZEqD2QZkZACGtDcyYi+ddDVcAipB1hidIE/vwb+Dau23rRjRmJMr+1CCM6fEwOdzm2oX9zvok07bs+ZlmKJ/WRnxcd744U9kGQ4tWK1TtSgKgf6GG5thwhsL/to9yTPxf8svGP/tPMTsjZxqJ3O6jjMTUAtSWttq/JXxy/98u9JP9l450wI9OvnnNTLqwPWYrNWQPAckrreQVYDgFZItLi0FTKwt2p5EaxpOW9f/MyCH1zwvQKrtJSwMicGOrXbYN93tCjhlTV/TluUM3MmHP2GZNj6ROSrKuHTpuCuR13otwEeYdG9pMvM8W09Cl/JticGvTDnrpG3F/TwdC9mVU4MdOoIoS4A2L8q2Jo1d+Vzd71f8tpE4RmZlibdtnxVrYNaCQkBxU1FnYwEoKDhFIbuLV0i1zzqh/er7T9OfuiNR8be93FmfL88Bjkx0KkjBrs1qMzYf2/7JPW61TOmo2ZjZu+ISxI0tHW/qmW1Tp2yKk8xXLpSBwJHKlcV9Y++KvulMdPmTcgcmy2ACq4CRwx06ujBbiurroj/y4Z3kqdsumcmDE//DMfFPcq033JQ+USo7xZXhKeOeSDV4SDvJR3aJSyBvOpPiiC7574x/OUFN1xwbaHb5uTwOjHQqfMFe/7hwuRnVr464qXdi6bA1X9whjXRvlt5EdRKCAiGOnWwMA8NrydJl8rx76pAbf7Xs/o/OfveUT8s6BV9HoOcGOjUqUNdAnCv371xwGOrF0/9/NDbg92e0b17Sqc136wWJhQY7NQRgtwmpE6WLrHLrPTDuz735oSffjhj7C+WDuo9IJtBTgx06lLVut8M9Pxgy0dJN62dOh2BnIwU96UJfq2sB8waIYRkqFM73XkVkiwuHdQ6cMD7eZHdPTb7/bFz5k8aMCFPQhwVQgS5kYiBTl0y2A9XHol/7cs3k6dumTILtl4DM+wDux/WNcYRFeD8OrWTihwANM6Tdh0pbMFdNf8phkbOkmGvzbt12A2FkQ4Ph9eJgU5UF+w5JXlpi1e9MumPe5/9ESKGDEy39LDlKq+G1pxfp3MY5hp2IXWKjNA5gfxqVOdumZox58kpY+7ekdQtYT+DnBjoRN8OdQOAZ0XOF1m/WL1wxtZj/8qK84xLcAurNd+sFhqa8+vUpkFugUSy4dJ7VVVAVa7de/V5d6yaO/7hVy9MHrQTQI0QgrsjMdCJTlet1wRq4/+x6cOkyevvnw51KD3VNTGhRgetxWYt59epDXZChd4Wl4ZGYF/VZ0VwDMl+b9SiBVcPumyvRRqlXK6VGOhETQz2g+Wl8Uu+eD151vapj8ORPDjDlhFVoqpluQ5yYRpq4YocADS6S6uOFY5gTu36UgQrdrww9Hfz7hh+S0GMO5rz5MRAJzrbYN9WtDNj4arf3rB03ys3IGJYZj8jxrYrPL/OZWTpbNQt12oTUveRbpETLPGj6pstU9Km/faXY366PjUupYBBTgx0opYLdYuCjv50x4r0H66eN+NAxaeZCZ4JCYYQ1kKzVpxYZRE17WCYYrj0Ye0LVFasLhoTe9OOp8Y+Mn9k34u2A6gSQvB8kRjoRK1RrVf6vPFvb3g36Z4GbVordcBawvl1OsODX31bU8OpLUIG8qs+LYI1LeetEU8v/P7QqwvtFhuH14mBTtRWwb7/2IGEl1f/KdSm1dlvaIa1j3ufqhLVbNNKp997ECUsuqd0mjm+bUfhK972xKAX59w98raCWLY1JQY60TkJdQHAvrlga/9ZK5/9yYclr0+A5+LUfjLClqeqtOb8OoU1nCdPkW6RGzziR9UmtjUlBjpROwt2a1CZPT7atrzPtatnTEfthsykiEsSlGabVjpelScbLl2jg4FDlSuLBsZcvfPF0b+ZPyFzNNuaEgOdqB0Gu62sujz+fzf8LemBr+6ZBUtUVrpjeFy59lkOmj7Or3exA1zdPHmC4dROtjUlBjpRxwz2/MOFSc+vWnLhC3kLHoRrwJAMay/HblWFoFas2LtIRe4Shu4t3SrHn1OB2gK2NSUGOlEHDXUJwLV+98YBv1n99K8/PfTWUI9ndFKcdFr3mlVCcRnZTlqV17U1dYtdZrkflV/uujnx3g9mjvvF0vMT+7OtKTHQiTpyte43/T0/2LIs6aZ1U6fDl5OREnFpgk8ra7GqZdOXTlaVJxlOHdAqUOxdURThHpv9tzGPz580YEKeISTbmhIDnaizBPsR79H4P69/M3nqlvtnh9q0Duh2RPuMw8rPYfgOW5GHgryntGtPXVtThZwlF70+79aLri+MtLOtKTHQiTptsOeU5KU9tfK/L/9TwfN3wj14YLolzrZLebVmm9YOFuZ1y7WG25rW5G6Zmj7nyQfG3L2jN9uaEgOdqEuEugEgcmXO2syHVi+asfnYB1k9POMSItimtcMEuTXc1nSPqgqoirV7r4q/Y828cb96+cLkIe2yremKFSvk+PHjuSQCMdCJWqtar/bXxL+7+V9Jk9c/MB1mSXqae2KCVwetB7mMbPsMc62QaLi0QF1b06HZ749atPCqQZP2WqRxqD22Nd2yZYt86623bD/4wQ/8I0aMYKgTA52oNYP9YPmh+N998T/Js7c//DgcKYMzbOlRh3SNPKYCnF8/5xU5AGj0kDYdI+zB3NoNpQiW7Xhx6JK5k4ffXNgR2pouWrRITps2jWFODHSitgr2bUU7MxaufPGGpftfvQERF2b2M7rVt2nlMHzbqluu1RBS95VukRMs9qFq25YpadNeemjsT9en9WBbUyIGOtGpQ72+Tettq+fOKK38LLNXxIQEq5DWArNGgPPrbVSVa0gIpBgufVT7AmUVq/ePjb1p+5NjH1nItqZEDHSiJlXrlT5v/Dsb30u6e8PkmRBI7+ucFF+h/dZDXEa2dcM8vFyrTcjA3gZtTX9wwdWFNoNtTYkY6ETNDPb9xw4kvrT6j+lP5sz6DZzpQzKsKe4iVS28Osj59Zbd2oiRVh0nnGaOb+tR+Eu2PXn+i3PuYltTIgY6UQuFugDg2FywNXP2qufu+eDAa5cickRqP8Nj3WV6AQ3OrzfT8XlyodNkhMgNHvajanOna2u6YMECOX36dE4RUKv9HhHRmZz9CqGFEDVDkwdt+8dtf5j/wZXL7oHWy3dVfJKfJJ2BROnUmmfKzaooFIBkw6W7C2sgt+I/ewfYen7y2XVr7v/TLc+9nhnfL6czhPmWLVuk1+u1VlRU8LhLrNCJ2lnFbiurLo//y4a/JU356p6ZsERk9XOMPK9M+yylnF8/o4OP1gq9wm1Nd1d/UgQRlfv6iCULbuykbU2Li4tlfHw8K3RioBO112DfW1qQ9OLq3w99Pm/BL+EeODTdEm8vUFXwsU3rqbYaIoShE6Rb5fhzK1Cbv2V2/6cev3fUnQXxbGtKxEAnOoehLgG41uZtGDhtzdOPrjj09iCXZ3RiL+m05qkqQGshIdCVS7OG95OnGW7kBssCqNyQe0vive/PHPfgmwMTs3IY5EQMdKJ2U637zUDP97d8lHTzukenw7czo0/ExASfNq0HVG0Xr9ZDbU2DWgUOeFcUdYsYl710zOz5E/uzrSkRA52oHQf7Ee/R+D+tXZr8yNYps2DrOTDDPqj7EV1rHFY+IdD559frl2vVCj0Nh/YIa3BXzfJiKJ3z+4vemHfLRdcXRtojOLxOxEAn6hjBnluSl/r0ylcu+X3Bs3fDPfj8dEucLU95tdKd9/fv221NC6pQnfP11Iw5T04Zc/eOJLY1JWKgE3XAUDcARKzMWdv/odULZ2w+9mFWrGdcQqSwWveoanSm9eHr5sktkEixuHS+WR0IVnyx93vxd66YO+7Xv7sgeVA22mFbUyIGOhE1qVqvCdTG/2PTB0mT198/HWZpeqp7YkKVDloPKl8nCXWNROnQAiLU1tQ5LOe9kfPmXzVo0l6rtJS2x7amRAx0Imp2sBeXH4r/w7r/TZ71za8fhyN1cIatb1SprpFHVaBDBXvDtqZx0qajhT2YW/tlKczyHS8OWTJ38ohbCmNcUZwnJ2KgE3XuYN9elJ0+f+ULN7+579Xr4bkwo5+lm3VX0CtODMv2HObh29CkW+QGDvhQvX3L/WmPvfyrsfeuS+2Rks8gJ2KgE3WVULco6JhPd6zo9+PV82fsr1ye2StiQoJNSGt+O23TenJb0yPaFyg/sa3pDgBetjUlYqATdclqvdLnjX9r47tJP/nyzpmQ6NfXOalXufZbS9vRbW4Nl2u117c1Tc15++JnF1435KpCu4VtTYkY6ERU16Y14eU1f05btHPGTLgyh2ZYk9zFqlpUnKM2rQ3nybtLq44VTjPH981R+Iu3PTnoxTl3Xcy2pkQMdCJqLNQFAPvmwm+yZq98NtSm1TMita/hseWZ3vAvbtsMw9cNrwshdD8ZIXKDpX5Ubel0bU2JGOhE1JrBbg0qM/ajbctTr10zczqqv8xM9lyaoKCt+8zaVp1frw9yCCQbTl2lg4HSypVFA6Ov2vnS2Bnzx2eMygZQIYQw+U4RMdCJ6MyC/Xib1k33zILhyOrnGBt3TPssh02fkEK2aNOXunnyeMOhncIS2FO9vAjCk/vGiD8suKGTtjUlYqATUZsG+97DhUnPr14y7MVdCx6Ea8CQDGsv+z5VjWptttD8ukaksOh46VI5/l3lqN279fH+T82+d/QPC3pGxTHIiRjoRNRCoS4BuNflbRzw2JrFj6449PYgu2dUYqJ0WXeH5tebvDBN3XKtCM+T7zLL/KjckHtr4r3/nDHuwbfZ1pSIgU5ErVit+81Azw+//ijpxrWPTIcvOyM1YmJCbTPbtCYZDm1qHSjyfl4UGzE++y9jZs+fNGDCLglxjG1NiRjoRNQGwX7EezT+z2uXJk8NtWkdkG4/P9arA8YBs1ZA6HANfsJ3hT6E0L2lE3YYgbyaT0qgkLPkotfn3Trs+sJIh4fD60QMdCI6F8GeW5KX+szqV8cv2fvMXXCm9EuzpUUKIWSVCsAM3QoHALAIqd3SioA2zXzftqPwHcp+JGPuk1NG35Xdm21NiRjoRHTOQ10C8KzOXdfnxY1/vvWd4iWToBEJq90CGWsHhASUgjpQgwBMGDh8V8Iv37l/xI/+c0HyoL0AatnWlIiBTkTtJ9gtSqtueQf3RGwq3GrZcmhHt2Peo2kQsAmgJjaiR84FvQZ5hyQODKb2SD4GoJL3kxMx0ImofYe7AGABYMfxVVxrAChW40REREREREREREREREREREREREREREREREREREREREREREREREREREREREREREREREREREREREREREREREREREREREREREREREREREREREREREREREREREREREREREREREREREREROfC/wdDyT54Zwz29QAAAABJRU5ErkJggg==;" vertex="1" parent="1">
          <mxGeometry x="300" y="180" width="220" height="131.12" as="geometry" />
        </mxCell>
        <mxCell id="TjWUEsn5IVO1DjWOrf8H-11" value="" style="fontColor=#0066CC;verticalAlign=top;verticalLabelPosition=bottom;labelPosition=center;align=center;html=1;outlineConnect=0;fillColor=#CCCCCC;strokeColor=#6881B3;gradientColor=none;gradientDirection=north;strokeWidth=2;shape=mxgraph.networks.storage;" vertex="1" parent="1">
          <mxGeometry x="-235" y="650" width="160" height="160" as="geometry" />
        </mxCell>
        <mxCell id="TjWUEsn5IVO1DjWOrf8H-14" value="" style="fontColor=#0066CC;verticalAlign=top;verticalLabelPosition=bottom;labelPosition=center;align=center;html=1;outlineConnect=0;fillColor=#CCCCCC;strokeColor=#6881B3;gradientColor=none;gradientDirection=north;strokeWidth=2;shape=mxgraph.networks.server;" vertex="1" parent="1">
          <mxGeometry x="-270" y="220" width="230" height="240" as="geometry" />
        </mxCell>
        <mxCell id="TjWUEsn5IVO1DjWOrf8H-17" value="" style="group" vertex="1" connectable="0" parent="1">
          <mxGeometry x="-80" y="150" width="218" height="338" as="geometry" />
        </mxCell>
        <mxCell id="TjWUEsn5IVO1DjWOrf8H-16" value="" style="shape=image;html=1;verticalAlign=top;verticalLabelPosition=bottom;labelBackgroundColor=#ffffff;imageAspect=0;aspect=fixed;image=https://cdn1.iconfinder.com/data/icons/operating-system-flat-1/30/linux-128.png" vertex="1" parent="TjWUEsn5IVO1DjWOrf8H-17">
          <mxGeometry width="218" height="218" as="geometry" />
        </mxCell>
        <mxCell id="TjWUEsn5IVO1DjWOrf8H-15" value="" style="image;sketch=0;aspect=fixed;html=1;points=[];align=center;fontSize=12;image=img/lib/mscae/Kubernetes.svg;" vertex="1" parent="TjWUEsn5IVO1DjWOrf8H-17">
          <mxGeometry x="15.25" y="158" width="187.5" height="180" as="geometry" />
        </mxCell>
      </root>
    </mxGraphModel>
  </diagram>
</mxfile>
